<?xml version="1.0" encoding="UTF-8" standalone="no"?>
<!DOCTYPE svg PUBLIC "-//W3C//DTD SVG 1.1//EN" "http://www.w3.org/Graphics/SVG/1.1/DTD/svg11.dtd">
<svg xmlns="http://www.w3.org/2000/svg" version="1.1" viewBox="0.00 0.00 124.00 65.00">
<g stroke-width="2.00" fill="none" stroke-linecap="butt">
<path stroke="#9893c1" vector-effect="non-scaling-stroke" d="
  M 22.25 14.73
  L 22.25 27.50
  Q 22.25 27.99 21.75 27.99
  L 18.27 28.02
  A 0.52 0.52 0.0 0 0 17.75 28.54
  L 17.75 30.37
  Q 17.75 31.00 18.37 31.00
  L 29.38 31.00
  A 0.63 0.62 -90.0 0 0 30.00 30.37
  L 30.00 28.75
  A 0.75 0.75 0.0 0 0 29.25 28.00
  L 27.03 28.00
  Q 26.25 28.00 26.25 27.22
  L 26.25 10.71
  A 1.99 1.98 74.4 0 0 23.24 9.01
  Q 19.63 11.20 16.64 14.38
  Q 16.28 14.75 16.51 15.22
  Q 17.22 16.67 18.76 16.80
  A 0.96 0.95 26.4 0 0 19.49 16.56
  L 21.75 14.51
  Q 22.25 14.05 22.25 14.73"
/>
<path stroke="#9893c1" vector-effect="non-scaling-stroke" d="
  M 38.77 28.00
  L 35.75 28.00
  A 0.75 0.75 0.0 0 0 35.00 28.75
  L 35.00 30.25
  Q 35.00 31.00 35.75 31.00
  L 46.59 31.00
  Q 47.24 31.00 47.24 30.35
  L 47.24 28.65
  A 0.65 0.65 0.0 0 0 46.59 28.00
  L 44.00 28.00
  Q 43.50 28.00 43.50 27.50
  L 43.50 9.71
  Q 43.50 9.13 42.93 9.04
  C 39.17 8.41 36.32 12.08 33.63 14.33
  A 0.61 0.60 -42.6 0 0 33.59 15.23
  L 35.19 16.78
  Q 35.72 17.30 36.28 16.82
  L 38.98 14.48
  A 0.34 0.34 0.0 0 1 39.55 14.75
  L 39.24 27.54
  Q 39.22 28.00 38.77 28.00"
/>
<path stroke="#9893c1" vector-effect="non-scaling-stroke" d="
  M 84.75 14.83
  L 84.75 27.23
  Q 84.75 27.75 84.24 27.86
  Q 82.89 28.16 81.48 28.19
  Q 79.83 28.22 80.27 30.27
  Q 80.43 31.00 81.18 31.00
  L 91.96 31.00
  Q 92.74 31.00 92.74 30.22
  L 92.74 28.77
  Q 92.74 28.00 91.96 28.00
  L 89.38 28.00
  Q 88.75 28.00 88.75 27.37
  L 88.75 9.76
  Q 88.75 9.31 88.32 9.17
  C 85.08 8.13 82.22 11.48 79.16 14.26
  Q 78.80 14.59 78.98 15.05
  Q 79.56 16.50 80.99 16.77
  Q 81.56 16.88 81.99 16.49
  L 84.13 14.56
  A 0.37 0.37 0.0 0 1 84.75 14.83"
/>
<path stroke="#9893c1" vector-effect="non-scaling-stroke" d="
  M 99.77 15.52
  L 100.26 12.52
  Q 100.34 12.03 100.83 12.02
  C 102.59 12.00 108.40 12.86 108.66 10.31
  A 1.20 1.19 2.8 0 0 107.47 9.00
  L 98.02 9.00
  Q 97.50 9.00 97.41 9.51
  L 95.86 18.57
  A 0.59 0.58 -76.8 0 0 96.26 19.22
  C 98.57 19.93 100.65 18.80 102.45 19.27
  C 107.47 20.58 106.08 31.65 97.07 26.24
  A 0.74 0.73 -57.1 0 0 96.10 26.45
  L 94.82 28.24
  A 0.62 0.62 0.0 0 0 94.97 29.11
  C 108.89 38.75 116.08 14.15 100.33 16.10
  A 0.51 0.50 -89.5 0 1 99.77 15.52"
/>
<path stroke="#9893c1" vector-effect="non-scaling-stroke" d="
  M 66.1500 34.0034
  A 3.83 1.11 0.2 0 0 62.3239 32.8800
  A 3.83 1.11 0.2 0 0 58.4900 33.9766
  A 3.83 1.11 0.2 0 0 62.3161 35.1000
  A 3.83 1.11 0.2 0 0 66.1500 34.0034"
/>
<path stroke="#9893c1" vector-effect="non-scaling-stroke" d="
  M 19.14 47.31
  L 15.40 39.55
  A 1.66 1.66 0.0 0 0 12.25 40.27
  L 12.25 52.37
  Q 12.25 53.00 12.87 53.00
  L 14.12 53.00
  Q 14.75 53.00 14.75 52.38
  L 14.75 44.77
  Q 14.75 44.23 15.01 44.70
  L 18.36 50.88
  A 1.32 1.32 0.0 0 0 20.69 50.85
  L 23.81 44.71
  Q 24.25 43.85 24.25 44.81
  L 24.25 52.30
  Q 24.25 52.92 24.87 53.01
  Q 25.67 53.12 26.32 52.71
  A 0.85 0.82 -49.2 0 1 27.06 52.64
  Q 30.57 54.06 30.96 50.66
  Q 31.04 50.00 31.71 50.00
  L 35.88 50.00
  A 0.86 0.86 0.0 0 1 36.72 50.66
  L 37.14 52.42
  Q 37.26 52.89 37.74 52.91
  L 39.67 52.97
  Q 40.34 52.99 40.11 52.36
  L 35.63 40.03
  A 1.92 1.91 45.1 0 0 32.03 40.02
  L 27.77 51.71
  A 0.53 0.53 0.0 0 1 26.75 51.53
  L 26.75 40.50
  A 1.72 1.72 0.0 0 0 23.48 39.74
  L 19.77 47.31
  Q 19.46 47.97 19.14 47.31"
/>
<path stroke="#9893c1" vector-effect="non-scaling-stroke" d="
  M 48.21 47.04
  Q 50.00 46.21 50.27 44.75
  C 51.41 38.52 45.87 38.58 41.64 39.07
  Q 41.06 39.13 41.06 39.73
  L 41.23 52.24
  Q 41.24 53.00 41.99 53.00
  L 43.13 53.00
  Q 43.75 53.00 43.75 52.38
  L 43.75 48.75
  A 0.92 0.92 0.0 0 1 45.46 48.27
  C 46.63 50.19 48.06 53.99 50.96 52.80
  Q 51.49 52.58 51.16 52.11
  L 48.03 47.69
  Q 47.72 47.26 48.21 47.04"
/>
<path stroke="#9893c1" vector-effect="non-scaling-stroke" d="
  M 77.79 45.17
  L 80.70 50.66
  A 1.49 1.48 44.5 0 0 83.33 50.64
  L 86.24 44.89
  A 0.27 0.27 0.0 0 1 86.75 45.01
  L 86.75 52.39
  Q 86.75 53.02 87.39 53.01
  L 88.49 52.98
  Q 89.25 52.96 89.25 52.20
  L 89.25 40.28
  A 1.67 1.67 0.0 0 0 86.08 39.54
  L 82.31 47.24
  A 0.41 0.41 0.0 0 1 81.57 47.24
  L 77.86 39.57
  A 1.64 1.64 0.0 0 0 74.75 40.28
  L 74.75 52.38
  Q 74.75 53.00 75.38 53.00
  L 76.75 53.00
  Q 77.25 53.00 77.25 52.50
  L 77.25 45.30
  A 0.29 0.29 0.0 0 1 77.79 45.17"
/>
<path stroke="#9893c1" vector-effect="non-scaling-stroke" d="
  M 90.59 52.96
  Q 93.29 53.36 93.38 50.56
  A 0.58 0.57 0.5 0 1 93.96 50.00
  L 98.54 50.00
  Q 99.11 50.00 99.22 50.55
  L 99.60 52.32
  A 0.85 0.84 -5.9 0 0 100.43 52.99
  L 102.07 52.99
  Q 102.89 52.99 102.61 52.21
  L 98.15 40.05
  A 1.93 1.92 -44.8 0 0 94.54 40.04
  L 90.06 52.06
  A 0.68 0.67 14.8 0 0 90.59 52.96"
/>
<path stroke="#9893c1" vector-effect="non-scaling-stroke" d="
  M 106.50 48.54
  A 0.76 0.76 0.0 0 1 107.92 48.16
  C 109.12 50.23 110.51 53.86 113.41 52.90
  Q 114.03 52.69 113.66 52.16
  L 110.68 47.86
  Q 110.44 47.51 110.78 47.24
  Q 114.51 44.30 111.79 39.69
  A 0.91 0.89 75.8 0 0 111.05 39.24
  L 104.18 38.90
  Q 103.46 38.87 103.47 39.58
  L 103.58 52.29
  Q 103.58 53.00 104.29 53.00
  L 105.75 53.00
  Q 106.50 53.00 106.50 52.25
  L 106.50 48.54"
/>
<path stroke="#9893c1" vector-effect="non-scaling-stroke" d="
  M 33.72 42.49
  L 32.25 47.36
  Q 32.06 47.98 32.71 47.98
  L 34.96 48.01
  A 0.53 0.52 80.6 0 0 35.46 47.31
  L 33.79 42.49
  A 0.04 0.04 0.0 0 0 33.72 42.49"
/>
<path stroke="#9893c1" vector-effect="non-scaling-stroke" d="
  M 43.92 41.63
  L 43.92 45.27
  A 0.69 0.69 0.0 0 0 44.61 45.96
  L 45.00 45.96
  A 2.74 2.38 0.0 0 0 47.74 43.58
  L 47.74 43.32
  A 2.74 2.38 0.0 0 0 45.00 40.94
  L 44.61 40.94
  A 0.69 0.69 0.0 0 0 43.92 41.63"
/>
<path stroke="#9893c1" vector-effect="non-scaling-stroke" d="
  M 96.14 42.73
  L 94.70 47.32
  Q 94.49 47.99 95.19 47.99
  L 97.55 47.99
  Q 98.17 47.99 97.98 47.40
  L 96.46 42.73
  A 0.17 0.17 0.0 0 0 96.14 42.73"
/>
<path stroke="#9893c1" vector-effect="non-scaling-stroke" d="
  M 106.51 41.61
  L 106.49 45.25
  A 0.68 0.68 0.0 0 0 107.16 45.93
  L 107.52 45.93
  A 2.70 2.33 0.4 0 0 110.24 43.62
  L 110.24 43.28
  A 2.70 2.33 0.4 0 0 107.56 40.93
  L 107.20 40.93
  A 0.68 0.68 0.0 0 0 106.51 41.61"
/>
</g>
<path fill="#302683" d="
  M 0.00 0.00
  L 124.00 0.00
  L 124.00 65.00
  L 0.00 65.00
  L 0.00 0.00
  Z
  M 22.25 14.73
  L 22.25 27.50
  Q 22.25 27.99 21.75 27.99
  L 18.27 28.02
  A 0.52 0.52 0.0 0 0 17.75 28.54
  L 17.75 30.37
  Q 17.75 31.00 18.37 31.00
  L 29.38 31.00
  A 0.63 0.62 -90.0 0 0 30.00 30.37
  L 30.00 28.75
  A 0.75 0.75 0.0 0 0 29.25 28.00
  L 27.03 28.00
  Q 26.25 28.00 26.25 27.22
  L 26.25 10.71
  A 1.99 1.98 74.4 0 0 23.24 9.01
  Q 19.63 11.20 16.64 14.38
  Q 16.28 14.75 16.51 15.22
  Q 17.22 16.67 18.76 16.80
  A 0.96 0.95 26.4 0 0 19.49 16.56
  L 21.75 14.51
  Q 22.25 14.05 22.25 14.73
  Z
  M 38.77 28.00
  L 35.75 28.00
  A 0.75 0.75 0.0 0 0 35.00 28.75
  L 35.00 30.25
  Q 35.00 31.00 35.75 31.00
  L 46.59 31.00
  Q 47.24 31.00 47.24 30.35
  L 47.24 28.65
  A 0.65 0.65 0.0 0 0 46.59 28.00
  L 44.00 28.00
  Q 43.50 28.00 43.50 27.50
  L 43.50 9.71
  Q 43.50 9.13 42.93 9.04
  C 39.17 8.41 36.32 12.08 33.63 14.33
  A 0.61 0.60 -42.6 0 0 33.59 15.23
  L 35.19 16.78
  Q 35.72 17.30 36.28 16.82
  L 38.98 14.48
  A 0.34 0.34 0.0 0 1 39.55 14.75
  L 39.24 27.54
  Q 39.22 28.00 38.77 28.00
  Z
  M 84.75 14.83
  L 84.75 27.23
  Q 84.75 27.75 84.24 27.86
  Q 82.89 28.16 81.48 28.19
  Q 79.83 28.22 80.27 30.27
  Q 80.43 31.00 81.18 31.00
  L 91.96 31.00
  Q 92.74 31.00 92.74 30.22
  L 92.74 28.77
  Q 92.74 28.00 91.96 28.00
  L 89.38 28.00
  Q 88.75 28.00 88.75 27.37
  L 88.75 9.76
  Q 88.75 9.31 88.32 9.17
  C 85.08 8.13 82.22 11.48 79.16 14.26
  Q 78.80 14.59 78.98 15.05
  Q 79.56 16.50 80.99 16.77
  Q 81.56 16.88 81.99 16.49
  L 84.13 14.56
  A 0.37 0.37 0.0 0 1 84.75 14.83
  Z
  M 99.77 15.52
  L 100.26 12.52
  Q 100.34 12.03 100.83 12.02
  C 102.59 12.00 108.40 12.86 108.66 10.31
  A 1.20 1.19 2.8 0 0 107.47 9.00
  L 98.02 9.00
  Q 97.50 9.00 97.41 9.51
  L 95.86 18.57
  A 0.59 0.58 -76.8 0 0 96.26 19.22
  C 98.57 19.93 100.65 18.80 102.45 19.27
  C 107.47 20.58 106.08 31.65 97.07 26.24
  A 0.74 0.73 -57.1 0 0 96.10 26.45
  L 94.82 28.24
  A 0.62 0.62 0.0 0 0 94.97 29.11
  C 108.89 38.75 116.08 14.15 100.33 16.10
  A 0.51 0.50 -89.5 0 1 99.77 15.52
  Z
  M 66.1500 34.0034
  A 3.83 1.11 0.2 0 0 62.3239 32.8800
  A 3.83 1.11 0.2 0 0 58.4900 33.9766
  A 3.83 1.11 0.2 0 0 62.3161 35.1000
  A 3.83 1.11 0.2 0 0 66.1500 34.0034
  Z
  M 19.14 47.31
  L 15.40 39.55
  A 1.66 1.66 0.0 0 0 12.25 40.27
  L 12.25 52.37
  Q 12.25 53.00 12.87 53.00
  L 14.12 53.00
  Q 14.75 53.00 14.75 52.38
  L 14.75 44.77
  Q 14.75 44.23 15.01 44.70
  L 18.36 50.88
  A 1.32 1.32 0.0 0 0 20.69 50.85
  L 23.81 44.71
  Q 24.25 43.85 24.25 44.81
  L 24.25 52.30
  Q 24.25 52.92 24.87 53.01
  Q 25.67 53.12 26.32 52.71
  A 0.85 0.82 -49.2 0 1 27.06 52.64
  Q 30.57 54.06 30.96 50.66
  Q 31.04 50.00 31.71 50.00
  L 35.88 50.00
  A 0.86 0.86 0.0 0 1 36.72 50.66
  L 37.14 52.42
  Q 37.26 52.89 37.74 52.91
  L 39.67 52.97
  Q 40.34 52.99 40.11 52.36
  L 35.63 40.03
  A 1.92 1.91 45.1 0 0 32.03 40.02
  L 27.77 51.71
  A 0.53 0.53 0.0 0 1 26.75 51.53
  L 26.75 40.50
  A 1.72 1.72 0.0 0 0 23.48 39.74
  L 19.77 47.31
  Q 19.46 47.97 19.14 47.31
  Z
  M 48.21 47.04
  Q 50.00 46.21 50.27 44.75
  C 51.41 38.52 45.87 38.58 41.64 39.07
  Q 41.06 39.13 41.06 39.73
  L 41.23 52.24
  Q 41.24 53.00 41.99 53.00
  L 43.13 53.00
  Q 43.75 53.00 43.75 52.38
  L 43.75 48.75
  A 0.92 0.92 0.0 0 1 45.46 48.27
  C 46.63 50.19 48.06 53.99 50.96 52.80
  Q 51.49 52.58 51.16 52.11
  L 48.03 47.69
  Q 47.72 47.26 48.21 47.04
  Z
  M 77.79 45.17
  L 80.70 50.66
  A 1.49 1.48 44.5 0 0 83.33 50.64
  L 86.24 44.89
  A 0.27 0.27 0.0 0 1 86.75 45.01
  L 86.75 52.39
  Q 86.75 53.02 87.39 53.01
  L 88.49 52.98
  Q 89.25 52.96 89.25 52.20
  L 89.25 40.28
  A 1.67 1.67 0.0 0 0 86.08 39.54
  L 82.31 47.24
  A 0.41 0.41 0.0 0 1 81.57 47.24
  L 77.86 39.57
  A 1.64 1.64 0.0 0 0 74.75 40.28
  L 74.75 52.38
  Q 74.75 53.00 75.38 53.00
  L 76.75 53.00
  Q 77.25 53.00 77.25 52.50
  L 77.25 45.30
  A 0.29 0.29 0.0 0 1 77.79 45.17
  Z
  M 90.59 52.96
  Q 93.29 53.36 93.38 50.56
  A 0.58 0.57 0.5 0 1 93.96 50.00
  L 98.54 50.00
  Q 99.11 50.00 99.22 50.55
  L 99.60 52.32
  A 0.85 0.84 -5.9 0 0 100.43 52.99
  L 102.07 52.99
  Q 102.89 52.99 102.61 52.21
  L 98.15 40.05
  A 1.93 1.92 -44.8 0 0 94.54 40.04
  L 90.06 52.06
  A 0.68 0.67 14.8 0 0 90.59 52.96
  Z
  M 106.50 48.54
  A 0.76 0.76 0.0 0 1 107.92 48.16
  C 109.12 50.23 110.51 53.86 113.41 52.90
  Q 114.03 52.69 113.66 52.16
  L 110.68 47.86
  Q 110.44 47.51 110.78 47.24
  Q 114.51 44.30 111.79 39.69
  A 0.91 0.89 75.8 0 0 111.05 39.24
  L 104.18 38.90
  Q 103.46 38.87 103.47 39.58
  L 103.58 52.29
  Q 103.58 53.00 104.29 53.00
  L 105.75 53.00
  Q 106.50 53.00 106.50 52.25
  L 106.50 48.54
  Z"
/>
<path fill="#ffffff" d="
  M 21.75 14.51
  L 19.49 16.56
  A 0.96 0.95 26.4 0 1 18.76 16.80
  Q 17.22 16.67 16.51 15.22
  Q 16.28 14.75 16.64 14.38
  Q 19.63 11.20 23.24 9.01
  A 1.99 1.98 74.4 0 1 26.25 10.71
  L 26.25 27.22
  Q 26.25 28.00 27.03 28.00
  L 29.25 28.00
  A 0.75 0.75 0.0 0 1 30.00 28.75
  L 30.00 30.37
  A 0.63 0.62 90.0 0 1 29.38 31.00
  L 18.37 31.00
  Q 17.75 31.00 17.75 30.37
  L 17.75 28.54
  A 0.52 0.52 0.0 0 1 18.27 28.02
  L 21.75 27.99
  Q 22.25 27.99 22.25 27.50
  L 22.25 14.73
  Q 22.25 14.05 21.75 14.51
  Z"
/>
<path fill="#ffffff" d="
  M 39.24 27.54
  L 39.55 14.75
  A 0.34 0.34 0.0 0 0 38.98 14.48
  L 36.28 16.82
  Q 35.72 17.30 35.19 16.78
  L 33.59 15.23
  A 0.61 0.60 -42.6 0 1 33.63 14.33
  C 36.32 12.08 39.17 8.41 42.93 9.04
  Q 43.50 9.13 43.50 9.71
  L 43.50 27.50
  Q 43.50 28.00 44.00 28.00
  L 46.59 28.00
  A 0.65 0.65 0.0 0 1 47.24 28.65
  L 47.24 30.35
  Q 47.24 31.00 46.59 31.00
  L 35.75 31.00
  Q 35.00 31.00 35.00 30.25
  L 35.00 28.75
  A 0.75 0.75 0.0 0 1 35.75 28.00
  L 38.77 28.00
  Q 39.22 28.00 39.24 27.54
  Z"
/>
<path fill="#ffffff" d="
  M 84.13 14.56
  L 81.99 16.49
  Q 81.56 16.88 80.99 16.77
  Q 79.56 16.50 78.98 15.05
  Q 78.80 14.59 79.16 14.26
  C 82.22 11.48 85.08 8.13 88.32 9.17
  Q 88.75 9.31 88.75 9.76
  L 88.75 27.37
  Q 88.75 28.00 89.38 28.00
  L 91.96 28.00
  Q 92.74 28.00 92.74 28.77
  L 92.74 30.22
  Q 92.74 31.00 91.96 31.00
  L 81.18 31.00
  Q 80.43 31.00 80.27 30.27
  Q 79.83 28.22 81.48 28.19
  Q 82.89 28.16 84.24 27.86
  Q 84.75 27.75 84.75 27.23
  L 84.75 14.83
  A 0.37 0.37 0.0 0 0 84.13 14.56
  Z"
/>
<path fill="#ffffff" d="
  M 100.33 16.10
  C 116.08 14.15 108.89 38.75 94.97 29.11
  A 0.62 0.62 0.0 0 1 94.82 28.24
  L 96.10 26.45
  A 0.74 0.73 -57.1 0 1 97.07 26.24
  C 106.08 31.65 107.47 20.58 102.45 19.27
  C 100.65 18.80 98.57 19.93 96.26 19.22
  A 0.59 0.58 -76.8 0 1 95.86 18.57
  L 97.41 9.51
  Q 97.50 9.00 98.02 9.00
  L 107.47 9.00
  A 1.20 1.19 2.8 0 1 108.66 10.31
  C 108.40 12.86 102.59 12.00 100.83 12.02
  Q 100.34 12.03 100.26 12.52
  L 99.77 15.52
  A 0.51 0.50 -89.5 0 0 100.33 16.10
  Z"
/>
<ellipse fill="#ffffff" cx="0.00" cy="0.00" transform="translate(62.32,33.99) rotate(0.2)" rx="3.83" ry="1.11"/>
<path fill="#ffffff" d="
  M 19.77 47.31
  L 23.48 39.74
  A 1.72 1.72 0.0 0 1 26.75 40.50
  L 26.75 51.53
  A 0.53 0.53 0.0 0 0 27.77 51.71
  L 32.03 40.02
  A 1.92 1.91 45.1 0 1 35.63 40.03
  L 40.11 52.36
  Q 40.34 52.99 39.67 52.97
  L 37.74 52.91
  Q 37.26 52.89 37.14 52.42
  L 36.72 50.66
  A 0.86 0.86 0.0 0 0 35.88 50.00
  L 31.71 50.00
  Q 31.04 50.00 30.96 50.66
  Q 30.57 54.06 27.06 52.64
  A 0.85 0.82 -49.2 0 0 26.32 52.71
  Q 25.67 53.12 24.87 53.01
  Q 24.25 52.92 24.25 52.30
  L 24.25 44.81
  Q 24.25 43.85 23.81 44.71
  L 20.69 50.85
  A 1.32 1.32 0.0 0 1 18.36 50.88
  L 15.01 44.70
  Q 14.75 44.23 14.75 44.77
  L 14.75 52.38
  Q 14.75 53.00 14.12 53.00
  L 12.87 53.00
  Q 12.25 53.00 12.25 52.37
  L 12.25 40.27
  A 1.66 1.66 0.0 0 1 15.40 39.55
  L 19.14 47.31
  Q 19.46 47.97 19.77 47.31
  Z
  M 33.72 42.49
  L 32.25 47.36
  Q 32.06 47.98 32.71 47.98
  L 34.96 48.01
  A 0.53 0.52 80.6 0 0 35.46 47.31
  L 33.79 42.49
  A 0.04 0.04 0.0 0 0 33.72 42.49
  Z"
/>
<path fill="#ffffff" d="
  M 48.03 47.69
  L 51.16 52.11
  Q 51.49 52.58 50.96 52.80
  C 48.06 53.99 46.63 50.19 45.46 48.27
  A 0.92 0.92 0.0 0 0 43.75 48.75
  L 43.75 52.38
  Q 43.75 53.00 43.13 53.00
  L 41.99 53.00
  Q 41.24 53.00 41.23 52.24
  L 41.06 39.73
  Q 41.06 39.13 41.64 39.07
  C 45.87 38.58 51.41 38.52 50.27 44.75
  Q 50.00 46.21 48.21 47.04
  Q 47.72 47.26 48.03 47.69
  Z
  M 43.92 41.63
  L 43.92 45.27
  A 0.69 0.69 0.0 0 0 44.61 45.96
  L 45.00 45.96
  A 2.74 2.38 0.0 0 0 47.74 43.58
  L 47.74 43.32
  A 2.74 2.38 0.0 0 0 45.00 40.94
  L 44.61 40.94
  A 0.69 0.69 0.0 0 0 43.92 41.63
  Z"
/>
<path fill="#ffffff" d="
  M 77.25 45.30
  L 77.25 52.50
  Q 77.25 53.00 76.75 53.00
  L 75.38 53.00
  Q 74.75 53.00 74.75 52.38
  L 74.75 40.28
  A 1.64 1.64 0.0 0 1 77.86 39.57
  L 81.57 47.24
  A 0.41 0.41 0.0 0 0 82.31 47.24
  L 86.08 39.54
  A 1.67 1.67 0.0 0 1 89.25 40.28
  L 89.25 52.20
  Q 89.25 52.96 88.49 52.98
  L 87.39 53.01
  Q 86.75 53.02 86.75 52.39
  L 86.75 45.01
  A 0.27 0.27 0.0 0 0 86.24 44.89
  L 83.33 50.64
  A 1.49 1.48 44.5 0 1 80.70 50.66
  L 77.79 45.17
  A 0.29 0.29 0.0 0 0 77.25 45.30
  Z"
/>
<path fill="#ffffff" d="
  M 90.59 52.96
  A 0.68 0.67 14.8 0 1 90.06 52.06
  L 94.54 40.04
  A 1.93 1.92 -44.8 0 1 98.15 40.05
  L 102.61 52.21
  Q 102.89 52.99 102.07 52.99
  L 100.43 52.99
  A 0.85 0.84 -5.9 0 1 99.60 52.32
  L 99.22 50.55
  Q 99.11 50.00 98.54 50.00
  L 93.96 50.00
  A 0.58 0.57 0.5 0 0 93.38 50.56
  Q 93.29 53.36 90.59 52.96
  Z
  M 96.14 42.73
  L 94.70 47.32
  Q 94.49 47.99 95.19 47.99
  L 97.55 47.99
  Q 98.17 47.99 97.98 47.40
  L 96.46 42.73
  A 0.17 0.17 0.0 0 0 96.14 42.73
  Z"
/>
<path fill="#ffffff" d="
  M 106.50 48.54
  L 106.50 52.25
  Q 106.50 53.00 105.75 53.00
  L 104.29 53.00
  Q 103.58 53.00 103.58 52.29
  L 103.47 39.58
  Q 103.46 38.87 104.18 38.90
  L 111.05 39.24
  A 0.91 0.89 75.8 0 1 111.79 39.69
  Q 114.51 44.30 110.78 47.24
  Q 110.44 47.51 110.68 47.86
  L 113.66 52.16
  Q 114.03 52.69 113.41 52.90
  C 110.51 53.86 109.12 50.23 107.92 48.16
  A 0.76 0.76 0.0 0 0 106.50 48.54
  Z
  M 106.51 41.61
  L 106.49 45.25
  A 0.68 0.68 0.0 0 0 107.16 45.93
  L 107.52 45.93
  A 2.70 2.33 0.4 0 0 110.24 43.62
  L 110.24 43.28
  A 2.70 2.33 0.4 0 0 107.56 40.93
  L 107.20 40.93
  A 0.68 0.68 0.0 0 0 106.51 41.61
  Z"
/>
<path fill="#302683" d="
  M 43.92 41.63
  A 0.69 0.69 0.0 0 1 44.61 40.94
  L 45.00 40.94
  A 2.74 2.38 -0.0 0 1 47.74 43.32
  L 47.74 43.58
  A 2.74 2.38 0.0 0 1 45.00 45.96
  L 44.61 45.96
  A 0.69 0.69 0.0 0 1 43.92 45.27
  L 43.92 41.63
  Z"
/>
<path fill="#302683" d="
  M 106.51 41.61
  A 0.68 0.68 0.0 0 1 107.20 40.93
  L 107.56 40.93
  A 2.70 2.33 0.4 0 1 110.24 43.28
  L 110.24 43.62
  A 2.70 2.33 0.4 0 1 107.52 45.93
  L 107.16 45.93
  A 0.68 0.68 0.0 0 1 106.49 45.25
  L 106.51 41.61
  Z"
/>
<path fill="#302683" d="
  M 33.72 42.49
  A 0.04 0.04 0.0 0 1 33.79 42.49
  L 35.46 47.31
  A 0.53 0.52 80.6 0 1 34.96 48.01
  L 32.71 47.98
  Q 32.06 47.98 32.25 47.36
  L 33.72 42.49
  Z"
/>
<path fill="#302683" d="
  M 96.14 42.73
  A 0.17 0.17 0.0 0 1 96.46 42.73
  L 97.98 47.40
  Q 98.17 47.99 97.55 47.99
  L 95.19 47.99
  Q 94.49 47.99 94.70 47.32
  L 96.14 42.73
  Z"
/>
</svg>
