<?xml version="1.0" encoding="UTF-8" standalone="no"?>
<!DOCTYPE svg PUBLIC "-//W3C//DTD SVG 1.1//EN" "http://www.w3.org/Graphics/SVG/1.1/DTD/svg11.dtd">
<svg xmlns="http://www.w3.org/2000/svg" version="1.1" viewBox="0.00 0.00 125.00 65.00">
<g stroke-width="2.00" fill="none" stroke-linecap="butt">
<path stroke="#9893c1" vector-effect="non-scaling-stroke" d="
  M 22.25 14.74
  L 22.25 27.48
  Q 22.25 27.96 21.77 27.98
  L 18.43 28.05
  A 1.63 1.36 39.2 0 0 19.00 31.00
  L 29.25 31.00
  A 0.75 0.75 0.0 0 0 30.00 30.25
  L 30.00 28.75
  A 0.75 0.75 0.0 0 0 29.25 28.00
  L 27.03 28.00
  Q 26.25 28.00 26.25 27.22
  L 26.25 9.75
  A 0.64 0.63 -83.1 0 0 25.77 9.13
  C 22.16 8.20 18.96 12.18 16.53 14.42
  Q 15.99 14.92 16.53 15.42
  L 18.04 16.81
  A 0.81 0.81 0.0 0 0 19.13 16.82
  L 21.76 14.52
  Q 22.25 14.09 22.25 14.74"
/>
<path stroke="#9893c1" vector-effect="non-scaling-stroke" d="
  M 38.80 28.00
  L 35.75 28.00
  Q 35.00 28.00 35.00 28.75
  L 35.00 30.37
  Q 35.00 31.00 35.63 31.00
  L 46.76 31.00
  Q 47.27 31.00 47.26 30.49
  L 47.23 28.64
  A 0.65 0.65 0.0 0 0 46.58 28.00
  L 44.00 28.00
  Q 43.50 28.00 43.50 27.50
  L 43.50 9.71
  Q 43.50 9.13 42.93 9.04
  C 39.17 8.41 36.33 12.08 33.64 14.33
  Q 33.12 14.77 33.61 15.24
  L 35.19 16.78
  Q 35.72 17.30 36.28 16.82
  L 38.96 14.49
  Q 39.48 14.04 39.47 14.73
  L 39.29 27.51
  Q 39.28 28.00 38.80 28.00"
/>
<path stroke="#9893c1" vector-effect="non-scaling-stroke" d="
  M 84.75 14.81
  L 84.75 27.25
  Q 84.75 28.00 84.00 28.00
  L 81.05 28.00
  Q 80.28 28.00 80.27 28.77
  L 80.24 30.35
  Q 80.23 30.96 80.84 30.96
  L 91.86 31.02
  Q 92.49 31.02 92.57 30.40
  L 92.76 28.84
  Q 92.86 28.00 92.02 28.00
  L 89.38 28.00
  Q 88.75 28.00 88.75 27.37
  L 88.75 9.76
  Q 88.75 9.31 88.32 9.17
  C 85.08 8.13 82.20 11.49 79.15 14.27
  Q 78.80 14.59 78.97 15.04
  Q 79.60 16.63 81.25 16.81
  A 1.04 1.01 25.5 0 0 82.07 16.53
  L 84.10 14.54
  A 0.38 0.38 0.0 0 1 84.75 14.81"
/>
<path stroke="#9893c1" vector-effect="non-scaling-stroke" d="
  M 105.42 12.70
  L 96.92 30.19
  Q 96.64 30.75 97.24 30.92
  C 99.39 31.53 100.89 30.97 101.93 28.87
  Q 106.04 20.57 110.23 11.27
  A 1.61 1.61 0.0 0 0 108.76 9.00
  L 95.50 9.00
  Q 95.00 9.00 95.00 9.50
  L 95.00 11.34
  A 0.65 0.65 0.0 0 0 95.65 11.99
  L 104.99 12.00
  Q 105.76 12.00 105.42 12.70"
/>
<path stroke="#9893c1" vector-effect="non-scaling-stroke" d="
  M 66.1397 34.0464
  A 3.80 1.10 0.7 0 0 62.3534 32.9001
  A 3.80 1.10 0.7 0 0 58.5403 33.9536
  A 3.80 1.10 0.7 0 0 62.3266 35.0999
  A 3.80 1.10 0.7 0 0 66.1397 34.0464"
/>
<path stroke="#9893c1" vector-effect="non-scaling-stroke" d="
  M 20.43 40.95
  Q 22.14 40.99 23.36 41.85
  A 0.77 0.75 34.5 0 0 24.43 41.66
  L 24.96 40.90
  Q 25.31 40.39 24.81 40.03
  C 18.76 35.68 11.64 44.57 21.82 47.75
  A 1.68 1.68 0.0 0 1 21.33 51.03
  Q 19.37 51.05 17.90 49.74
  A 0.46 0.45 36.4 0 0 17.21 49.84
  L 16.33 51.26
  Q 16.06 51.69 16.49 51.95
  Q 20.36 54.25 24.09 51.95
  A 1.46 1.43 84.3 0 0 24.67 51.23
  Q 26.89 45.13 20.80 44.26
  A 1.82 1.50 44.2 0 1 20.43 40.95"
/>
<path stroke="#9893c1" vector-effect="non-scaling-stroke" d="
  M 29.50 44.49
  L 29.50 41.53
  Q 29.50 41.05 29.98 41.04
  L 34.47 40.92
  A 0.96 0.95 44.2 0 0 34.44 39.01
  L 27.13 39.00
  A 0.63 0.62 0.0 0 0 26.50 39.62
  L 26.50 52.25
  Q 26.50 53.00 27.25 53.00
  L 34.39 52.99
  A 0.75 0.75 0.0 0 0 35.14 52.16
  Q 34.96 50.65 33.22 50.84
  Q 31.71 51.00 30.07 51.03
  Q 29.50 51.04 29.50 50.47
  L 29.50 47.50
  A 0.50 0.50 0.0 0 1 30.00 47.00
  L 33.00 47.00
  A 1.04 0.95 -42.2 0 0 33.19 45.02
  L 30.00 44.99
  Q 29.50 44.99 29.50 44.49"
/>
<path stroke="#9893c1" vector-effect="non-scaling-stroke" d="
  M 44.31 39.69
  Q 41.03 38.32 36.94 39.22
  Q 36.50 39.31 36.50 39.77
  L 36.50 52.38
  Q 36.50 53.00 37.13 53.00
  L 39.00 53.00
  Q 39.50 53.00 39.50 52.50
  L 39.50 48.50
  A 0.51 0.51 0.0 0 1 40.03 47.99
  C 41.69 48.06 43.34 48.13 44.64 47.11
  C 46.67 45.53 46.96 40.80 44.31 39.69"
/>
<path stroke="#9893c1" vector-effect="non-scaling-stroke" d="
  M 81.98 42.26
  Q 82.22 41.06 83.50 40.96
  C 84.61 40.88 85.27 41.81 86.41 41.76
  A 1.11 1.11 0.0 0 0 86.87 39.66
  C 80.45 36.39 74.90 44.26 84.37 47.78
  A 1.47 1.47 0.0 0 1 85.08 49.97
  C 83.68 52.07 81.94 50.59 80.39 49.82
  Q 79.79 49.53 79.48 50.12
  L 78.94 51.10
  Q 78.71 51.55 79.12 51.83
  C 83.44 54.78 89.68 52.29 87.38 46.29
  Q 87.19 45.80 86.71 45.57
  L 82.72 43.72
  A 1.33 1.33 0.0 0 1 81.98 42.26"
/>
<path stroke="#9893c1" vector-effect="non-scaling-stroke" d="
  M 92.38 41.05
  L 96.85 40.90
  A 0.95 0.95 0.0 0 0 96.82 39.00
  L 89.77 39.00
  Q 89.28 39.00 89.28 39.48
  L 89.19 52.46
  A 0.53 0.52 0.5 0 0 89.72 52.99
  Q 93.31 53.02 96.89 52.98
  A 0.99 0.99 0.0 0 0 96.88 51.00
  L 92.57 51.00
  Q 91.89 51.00 91.86 50.32
  L 91.75 47.77
  A 0.73 0.73 0.0 0 1 92.48 47.01
  L 95.70 46.98
  A 0.94 0.94 0.0 0 0 95.74 45.10
  L 92.33 44.95
  A 0.62 0.62 0.0 0 1 91.74 44.33
  L 91.77 41.68
  A 0.63 0.63 0.0 0 1 92.38 41.05"
/>
<path stroke="#9893c1" vector-effect="non-scaling-stroke" d="
  M 102.37 47.83
  C 110.96 49.89 111.85 36.27 99.65 39.27
  Q 99.20 39.38 99.20 39.84
  L 99.08 51.75
  A 1.57 1.23 57.4 0 0 101.74 52.68
  Q 102.12 50.61 101.68 48.50
  A 0.57 0.57 0.0 0 1 102.37 47.83"
/>
<path stroke="#9893c1" vector-effect="non-scaling-stroke" d="
  M 39.49 41.52
  L 39.49 45.44
  A 0.55 0.55 0.0 0 0 40.04 45.99
  L 41.03 45.99
  A 2.44 2.33 0.1 0 0 43.47 43.66
  L 43.47 43.30
  A 2.44 2.33 0.1 0 0 41.03 40.97
  L 40.04 40.97
  A 0.55 0.55 0.0 0 0 39.49 41.52"
/>
<path stroke="#9893c1" vector-effect="non-scaling-stroke" d="
  M 101.81 41.77
  L 101.83 45.27
  A 0.76 0.76 0.0 0 0 102.59 46.02
  L 103.45 46.02
  A 2.56 2.28 -0.2 0 0 106.00 43.73
  L 106.00 43.27
  A 2.56 2.28 -0.2 0 0 103.43 41.00
  L 102.57 41.00
  A 0.76 0.76 0.0 0 0 101.81 41.77"
/>
</g>
<path fill="#302683" d="
  M 0.00 0.00
  L 125.00 0.00
  L 125.00 65.00
  L 0.00 65.00
  L 0.00 0.00
  Z
  M 22.25 14.74
  L 22.25 27.48
  Q 22.25 27.96 21.77 27.98
  L 18.43 28.05
  A 1.63 1.36 39.2 0 0 19.00 31.00
  L 29.25 31.00
  A 0.75 0.75 0.0 0 0 30.00 30.25
  L 30.00 28.75
  A 0.75 0.75 0.0 0 0 29.25 28.00
  L 27.03 28.00
  Q 26.25 28.00 26.25 27.22
  L 26.25 9.75
  A 0.64 0.63 -83.1 0 0 25.77 9.13
  C 22.16 8.20 18.96 12.18 16.53 14.42
  Q 15.99 14.92 16.53 15.42
  L 18.04 16.81
  A 0.81 0.81 0.0 0 0 19.13 16.82
  L 21.76 14.52
  Q 22.25 14.09 22.25 14.74
  Z
  M 38.80 28.00
  L 35.75 28.00
  Q 35.00 28.00 35.00 28.75
  L 35.00 30.37
  Q 35.00 31.00 35.63 31.00
  L 46.76 31.00
  Q 47.27 31.00 47.26 30.49
  L 47.23 28.64
  A 0.65 0.65 0.0 0 0 46.58 28.00
  L 44.00 28.00
  Q 43.50 28.00 43.50 27.50
  L 43.50 9.71
  Q 43.50 9.13 42.93 9.04
  C 39.17 8.41 36.33 12.08 33.64 14.33
  Q 33.12 14.77 33.61 15.24
  L 35.19 16.78
  Q 35.72 17.30 36.28 16.82
  L 38.96 14.49
  Q 39.48 14.04 39.47 14.73
  L 39.29 27.51
  Q 39.28 28.00 38.80 28.00
  Z
  M 84.75 14.81
  L 84.75 27.25
  Q 84.75 28.00 84.00 28.00
  L 81.05 28.00
  Q 80.28 28.00 80.27 28.77
  L 80.24 30.35
  Q 80.23 30.96 80.84 30.96
  L 91.86 31.02
  Q 92.49 31.02 92.57 30.40
  L 92.76 28.84
  Q 92.86 28.00 92.02 28.00
  L 89.38 28.00
  Q 88.75 28.00 88.75 27.37
  L 88.75 9.76
  Q 88.75 9.31 88.32 9.17
  C 85.08 8.13 82.20 11.49 79.15 14.27
  Q 78.80 14.59 78.97 15.04
  Q 79.60 16.63 81.25 16.81
  A 1.04 1.01 25.5 0 0 82.07 16.53
  L 84.10 14.54
  A 0.38 0.38 0.0 0 1 84.75 14.81
  Z
  M 105.42 12.70
  L 96.92 30.19
  Q 96.64 30.75 97.24 30.92
  C 99.39 31.53 100.89 30.97 101.93 28.87
  Q 106.04 20.57 110.23 11.27
  A 1.61 1.61 0.0 0 0 108.76 9.00
  L 95.50 9.00
  Q 95.00 9.00 95.00 9.50
  L 95.00 11.34
  A 0.65 0.65 0.0 0 0 95.65 11.99
  L 104.99 12.00
  Q 105.76 12.00 105.42 12.70
  Z
  M 66.1397 34.0464
  A 3.80 1.10 0.7 0 0 62.3534 32.9001
  A 3.80 1.10 0.7 0 0 58.5403 33.9536
  A 3.80 1.10 0.7 0 0 62.3266 35.0999
  A 3.80 1.10 0.7 0 0 66.1397 34.0464
  Z
  M 20.43 40.95
  Q 22.14 40.99 23.36 41.85
  A 0.77 0.75 34.5 0 0 24.43 41.66
  L 24.96 40.90
  Q 25.31 40.39 24.81 40.03
  C 18.76 35.68 11.64 44.57 21.82 47.75
  A 1.68 1.68 0.0 0 1 21.33 51.03
  Q 19.37 51.05 17.90 49.74
  A 0.46 0.45 36.4 0 0 17.21 49.84
  L 16.33 51.26
  Q 16.06 51.69 16.49 51.95
  Q 20.36 54.25 24.09 51.95
  A 1.46 1.43 84.3 0 0 24.67 51.23
  Q 26.89 45.13 20.80 44.26
  A 1.82 1.50 44.2 0 1 20.43 40.95
  Z
  M 29.50 44.49
  L 29.50 41.53
  Q 29.50 41.05 29.98 41.04
  L 34.47 40.92
  A 0.96 0.95 44.2 0 0 34.44 39.01
  L 27.13 39.00
  A 0.63 0.62 0.0 0 0 26.50 39.62
  L 26.50 52.25
  Q 26.50 53.00 27.25 53.00
  L 34.39 52.99
  A 0.75 0.75 0.0 0 0 35.14 52.16
  Q 34.96 50.65 33.22 50.84
  Q 31.71 51.00 30.07 51.03
  Q 29.50 51.04 29.50 50.47
  L 29.50 47.50
  A 0.50 0.50 0.0 0 1 30.00 47.00
  L 33.00 47.00
  A 1.04 0.95 -42.2 0 0 33.19 45.02
  L 30.00 44.99
  Q 29.50 44.99 29.50 44.49
  Z
  M 44.31 39.69
  Q 41.03 38.32 36.94 39.22
  Q 36.50 39.31 36.50 39.77
  L 36.50 52.38
  Q 36.50 53.00 37.13 53.00
  L 39.00 53.00
  Q 39.50 53.00 39.50 52.50
  L 39.50 48.50
  A 0.51 0.51 0.0 0 1 40.03 47.99
  C 41.69 48.06 43.34 48.13 44.64 47.11
  C 46.67 45.53 46.96 40.80 44.31 39.69
  Z
  M 81.98 42.26
  Q 82.22 41.06 83.50 40.96
  C 84.61 40.88 85.27 41.81 86.41 41.76
  A 1.11 1.11 0.0 0 0 86.87 39.66
  C 80.45 36.39 74.90 44.26 84.37 47.78
  A 1.47 1.47 0.0 0 1 85.08 49.97
  C 83.68 52.07 81.94 50.59 80.39 49.82
  Q 79.79 49.53 79.48 50.12
  L 78.94 51.10
  Q 78.71 51.55 79.12 51.83
  C 83.44 54.78 89.68 52.29 87.38 46.29
  Q 87.19 45.80 86.71 45.57
  L 82.72 43.72
  A 1.33 1.33 0.0 0 1 81.98 42.26
  Z
  M 92.38 41.05
  L 96.85 40.90
  A 0.95 0.95 0.0 0 0 96.82 39.00
  L 89.77 39.00
  Q 89.28 39.00 89.28 39.48
  L 89.19 52.46
  A 0.53 0.52 0.5 0 0 89.72 52.99
  Q 93.31 53.02 96.89 52.98
  A 0.99 0.99 0.0 0 0 96.88 51.00
  L 92.57 51.00
  Q 91.89 51.00 91.86 50.32
  L 91.75 47.77
  A 0.73 0.73 0.0 0 1 92.48 47.01
  L 95.70 46.98
  A 0.94 0.94 0.0 0 0 95.74 45.10
  L 92.33 44.95
  A 0.62 0.62 0.0 0 1 91.74 44.33
  L 91.77 41.68
  A 0.63 0.63 0.0 0 1 92.38 41.05
  Z
  M 102.37 47.83
  C 110.96 49.89 111.85 36.27 99.65 39.27
  Q 99.20 39.38 99.20 39.84
  L 99.08 51.75
  A 1.57 1.23 57.4 0 0 101.74 52.68
  Q 102.12 50.61 101.68 48.50
  A 0.57 0.57 0.0 0 1 102.37 47.83
  Z"
/>
<path fill="#ffffff" d="
  M 21.76 14.52
  L 19.13 16.82
  A 0.81 0.81 0.0 0 1 18.04 16.81
  L 16.53 15.42
  Q 15.99 14.92 16.53 14.42
  C 18.96 12.18 22.16 8.20 25.77 9.13
  A 0.64 0.63 -83.1 0 1 26.25 9.75
  L 26.25 27.22
  Q 26.25 28.00 27.03 28.00
  L 29.25 28.00
  A 0.75 0.75 0.0 0 1 30.00 28.75
  L 30.00 30.25
  A 0.75 0.75 0.0 0 1 29.25 31.00
  L 19.00 31.00
  A 1.63 1.36 39.2 0 1 18.43 28.05
  L 21.77 27.98
  Q 22.25 27.96 22.25 27.48
  L 22.25 14.74
  Q 22.25 14.09 21.76 14.52
  Z"
/>
<path fill="#ffffff" d="
  M 39.29 27.51
  L 39.47 14.73
  Q 39.48 14.04 38.96 14.49
  L 36.28 16.82
  Q 35.72 17.30 35.19 16.78
  L 33.61 15.24
  Q 33.12 14.77 33.64 14.33
  C 36.33 12.08 39.17 8.41 42.93 9.04
  Q 43.50 9.13 43.50 9.71
  L 43.50 27.50
  Q 43.50 28.00 44.00 28.00
  L 46.58 28.00
  A 0.65 0.65 0.0 0 1 47.23 28.64
  L 47.26 30.49
  Q 47.27 31.00 46.76 31.00
  L 35.63 31.00
  Q 35.00 31.00 35.00 30.37
  L 35.00 28.75
  Q 35.00 28.00 35.75 28.00
  L 38.80 28.00
  Q 39.28 28.00 39.29 27.51
  Z"
/>
<path fill="#ffffff" d="
  M 84.10 14.54
  L 82.07 16.53
  A 1.04 1.01 25.5 0 1 81.25 16.81
  Q 79.60 16.63 78.97 15.04
  Q 78.80 14.59 79.15 14.27
  C 82.20 11.49 85.08 8.13 88.32 9.17
  Q 88.75 9.31 88.75 9.76
  L 88.75 27.37
  Q 88.75 28.00 89.38 28.00
  L 92.02 28.00
  Q 92.86 28.00 92.76 28.84
  L 92.57 30.40
  Q 92.49 31.02 91.86 31.02
  L 80.84 30.96
  Q 80.23 30.96 80.24 30.35
  L 80.27 28.77
  Q 80.28 28.00 81.05 28.00
  L 84.00 28.00
  Q 84.75 28.00 84.75 27.25
  L 84.75 14.81
  A 0.38 0.38 0.0 0 0 84.10 14.54
  Z"
/>
<path fill="#ffffff" d="
  M 104.99 12.00
  L 95.65 11.99
  A 0.65 0.65 0.0 0 1 95.00 11.34
  L 95.00 9.50
  Q 95.00 9.00 95.50 9.00
  L 108.76 9.00
  A 1.61 1.61 0.0 0 1 110.23 11.27
  Q 106.04 20.57 101.93 28.87
  C 100.89 30.97 99.39 31.53 97.24 30.92
  Q 96.64 30.75 96.92 30.19
  L 105.42 12.70
  Q 105.76 12.00 104.99 12.00
  Z"
/>
<ellipse fill="#ffffff" cx="0.00" cy="0.00" transform="translate(62.34,34.00) rotate(0.7)" rx="3.80" ry="1.10"/>
<path fill="#ffffff" d="
  M 20.43 40.95
  A 1.82 1.50 44.2 0 0 20.80 44.26
  Q 26.89 45.13 24.67 51.23
  A 1.46 1.43 84.3 0 1 24.09 51.95
  Q 20.36 54.25 16.49 51.95
  Q 16.06 51.69 16.33 51.26
  L 17.21 49.84
  A 0.46 0.45 36.4 0 1 17.90 49.74
  Q 19.37 51.05 21.33 51.03
  A 1.68 1.68 0.0 0 0 21.82 47.75
  C 11.64 44.57 18.76 35.68 24.81 40.03
  Q 25.31 40.39 24.96 40.90
  L 24.43 41.66
  A 0.77 0.75 34.5 0 1 23.36 41.85
  Q 22.14 40.99 20.43 40.95
  Z"
/>
<path fill="#ffffff" d="
  M 30.00 44.99
  L 33.19 45.02
  A 1.04 0.95 -42.2 0 1 33.00 47.00
  L 30.00 47.00
  A 0.50 0.50 0.0 0 0 29.50 47.50
  L 29.50 50.47
  Q 29.50 51.04 30.07 51.03
  Q 31.71 51.00 33.22 50.84
  Q 34.96 50.65 35.14 52.16
  A 0.75 0.75 0.0 0 1 34.39 52.99
  L 27.25 53.00
  Q 26.50 53.00 26.50 52.25
  L 26.50 39.62
  A 0.63 0.62 -0.0 0 1 27.13 39.00
  L 34.44 39.01
  A 0.96 0.95 44.2 0 1 34.47 40.92
  L 29.98 41.04
  Q 29.50 41.05 29.50 41.53
  L 29.50 44.49
  Q 29.50 44.99 30.00 44.99
  Z"
/>
<path fill="#ffffff" d="
  M 44.31 39.69
  C 46.96 40.80 46.67 45.53 44.64 47.11
  C 43.34 48.13 41.69 48.06 40.03 47.99
  A 0.51 0.51 0.0 0 0 39.50 48.50
  L 39.50 52.50
  Q 39.50 53.00 39.00 53.00
  L 37.13 53.00
  Q 36.50 53.00 36.50 52.38
  L 36.50 39.77
  Q 36.50 39.31 36.94 39.22
  Q 41.03 38.32 44.31 39.69
  Z
  M 39.49 41.52
  L 39.49 45.44
  A 0.55 0.55 0.0 0 0 40.04 45.99
  L 41.03 45.99
  A 2.44 2.33 0.1 0 0 43.47 43.66
  L 43.47 43.30
  A 2.44 2.33 0.1 0 0 41.03 40.97
  L 40.04 40.97
  A 0.55 0.55 0.0 0 0 39.49 41.52
  Z"
/>
<path fill="#ffffff" d="
  M 81.98 42.26
  A 1.33 1.33 0.0 0 0 82.72 43.72
  L 86.71 45.57
  Q 87.19 45.80 87.38 46.29
  C 89.68 52.29 83.44 54.78 79.12 51.83
  Q 78.71 51.55 78.94 51.10
  L 79.48 50.12
  Q 79.79 49.53 80.39 49.82
  C 81.94 50.59 83.68 52.07 85.08 49.97
  A 1.47 1.47 0.0 0 0 84.37 47.78
  C 74.90 44.26 80.45 36.39 86.87 39.66
  A 1.11 1.11 0.0 0 1 86.41 41.76
  C 85.27 41.81 84.61 40.88 83.50 40.96
  Q 82.22 41.06 81.98 42.26
  Z"
/>
<path fill="#ffffff" d="
  M 91.77 41.68
  L 91.74 44.33
  A 0.62 0.62 0.0 0 0 92.33 44.95
  L 95.74 45.10
  A 0.94 0.94 0.0 0 1 95.70 46.98
  L 92.48 47.01
  A 0.73 0.73 0.0 0 0 91.75 47.77
  L 91.86 50.32
  Q 91.89 51.00 92.57 51.00
  L 96.88 51.00
  A 0.99 0.99 0.0 0 1 96.89 52.98
  Q 93.31 53.02 89.72 52.99
  A 0.53 0.52 0.5 0 1 89.19 52.46
  L 89.28 39.48
  Q 89.28 39.00 89.77 39.00
  L 96.82 39.00
  A 0.95 0.95 0.0 0 1 96.85 40.90
  L 92.38 41.05
  A 0.63 0.63 0.0 0 0 91.77 41.68
  Z"
/>
<path fill="#ffffff" d="
  M 99.65 39.27
  C 111.85 36.27 110.96 49.89 102.37 47.83
  A 0.57 0.57 0.0 0 0 101.68 48.50
  Q 102.12 50.61 101.74 52.68
  A 1.57 1.23 57.4 0 1 99.08 51.75
  L 99.20 39.84
  Q 99.20 39.38 99.65 39.27
  Z
  M 101.81 41.77
  L 101.83 45.27
  A 0.76 0.76 0.0 0 0 102.59 46.02
  L 103.45 46.02
  A 2.56 2.28 -0.2 0 0 106.00 43.73
  L 106.00 43.27
  A 2.56 2.28 -0.2 0 0 103.43 41.00
  L 102.57 41.00
  A 0.76 0.76 0.0 0 0 101.81 41.77
  Z"
/>
<path fill="#302683" d="
  M 39.49 41.52
  A 0.55 0.55 0.0 0 1 40.04 40.97
  L 41.03 40.97
  A 2.44 2.33 0.1 0 1 43.47 43.30
  L 43.47 43.66
  A 2.44 2.33 0.1 0 1 41.03 45.99
  L 40.04 45.99
  A 0.55 0.55 0.0 0 1 39.49 45.44
  L 39.49 41.52
  Z"
/>
<path fill="#302683" d="
  M 101.81 41.77
  A 0.76 0.76 0.0 0 1 102.57 41.00
  L 103.43 41.00
  A 2.56 2.28 -0.2 0 1 106.00 43.27
  L 106.00 43.73
  A 2.56 2.28 -0.2 0 1 103.45 46.02
  L 102.59 46.02
  A 0.76 0.76 0.0 0 1 101.83 45.27
  L 101.81 41.77
  Z"
/>
</svg>
