<?xml version="1.0" encoding="UTF-8" standalone="no"?>
<!DOCTYPE svg PUBLIC "-//W3C//DTD SVG 1.1//EN" "http://www.w3.org/Graphics/SVG/1.1/DTD/svg11.dtd">
<svg xmlns="http://www.w3.org/2000/svg" version="1.1" viewBox="0.00 0.00 63.00 65.00">
<g stroke-width="2.00" fill="none" stroke-linecap="butt">
<path stroke="#9893c1" vector-effect="non-scaling-stroke" d="
  M 23.1498 31.3500
  A 11.34 8.28 89.9 0 0 31.4100 19.9955
  A 11.34 8.28 89.9 0 0 23.1102 8.6700
  A 11.34 8.28 89.9 0 0 14.8500 20.0245
  A 11.34 8.28 89.9 0 0 23.1498 31.3500"
/>
<path stroke="#9893c1" vector-effect="non-scaling-stroke" d="
  M 35.24 19.86
  Q 32.94 21.01 32.74 23.75
  C 32.04 33.54 47.53 33.43 47.95 24.83
  Q 48.11 21.51 44.97 19.67
  Q 44.46 19.37 44.96 19.05
  C 50.00 15.85 46.43 9.29 41.02 9.02
  Q 33.26 8.64 33.21 16.00
  A 0.70 0.63 29.3 0 0 33.34 16.39
  L 35.40 19.21
  Q 35.71 19.63 35.24 19.86"
/>
<path stroke="#9893c1" vector-effect="non-scaling-stroke" d="
  M 20.7725 53.1699
  A 7.17 6.82 90.3 0 0 27.6299 46.0357
  A 7.17 6.82 90.3 0 0 20.8475 38.8301
  A 7.17 6.82 90.3 0 0 13.9901 45.9643
  A 7.17 6.82 90.3 0 0 20.7725 53.1699"
/>
<path stroke="#9893c1" vector-effect="non-scaling-stroke" d="
  M 37.22 49.97
  C 29.49 56.55 28.41 36.19 37.20 41.74
  Q 37.67 42.03 38.14 41.74
  Q 40.20 40.43 42.72 41.09
  Q 43.27 41.23 43.27 41.81
  L 43.24 52.37
  Q 43.24 53.00 43.87 53.00
  L 45.50 53.00
  Q 46.00 53.00 46.00 52.50
  L 46.00 41.69
  A 0.60 0.60 0.0 0 1 46.55 41.09
  L 49.80 40.81
  A 0.83 0.83 0.0 0 0 49.80 39.15
  C 45.24 38.72 40.42 39.81 36.09 38.95
  C 23.84 36.52 26.45 59.12 38.73 51.94
  A 0.89 0.88 50.3 0 0 38.86 50.51
  L 38.24 49.97
  Q 37.73 49.53 37.22 49.97"
/>
<path stroke="#9893c1" vector-effect="non-scaling-stroke" d="
  M 23.1481 28.0600
  A 8.06 3.99 89.8 0 0 27.1100 19.9861
  A 8.06 3.99 89.8 0 0 23.0919 11.9400
  A 8.06 3.99 89.8 0 0 19.1300 20.0139
  A 8.06 3.99 89.8 0 0 23.1481 28.0600"
/>
<path stroke="#9893c1" vector-effect="non-scaling-stroke" d="
  M 43.22 14.93
  A 2.94 2.94 0.0 0 0 40.28 11.99
  A 2.94 2.94 0.0 0 0 37.34 14.93
  A 2.94 2.94 0.0 0 0 40.28 17.87
  A 2.94 2.94 0.0 0 0 43.22 14.93"
/>
<path stroke="#9893c1" vector-effect="non-scaling-stroke" d="
  M 43.78 24.49
  A 3.51 3.51 0.0 0 0 40.27 20.98
  A 3.51 3.51 0.0 0 0 36.76 24.49
  A 3.51 3.51 0.0 0 0 40.27 28.00
  A 3.51 3.51 0.0 0 0 43.78 24.49"
/>
<path stroke="#9893c1" vector-effect="non-scaling-stroke" d="
  M 20.7724 51.0400
  A 5.05 3.91 90.2 0 0 24.7000 46.0036
  A 5.05 3.91 90.2 0 0 20.8076 40.9400
  A 5.05 3.91 90.2 0 0 16.8800 45.9764
  A 5.05 3.91 90.2 0 0 20.7724 51.0400"
/>
</g>
<path fill="#302683" d="
  M 0.00 0.00
  L 63.00 0.00
  L 63.00 65.00
  L 0.00 65.00
  L 0.00 0.00
  Z
  M 23.1498 31.3500
  A 11.34 8.28 89.9 0 0 31.4100 19.9955
  A 11.34 8.28 89.9 0 0 23.1102 8.6700
  A 11.34 8.28 89.9 0 0 14.8500 20.0245
  A 11.34 8.28 89.9 0 0 23.1498 31.3500
  Z
  M 35.24 19.86
  Q 32.94 21.01 32.74 23.75
  C 32.04 33.54 47.53 33.43 47.95 24.83
  Q 48.11 21.51 44.97 19.67
  Q 44.46 19.37 44.96 19.05
  C 50.00 15.85 46.43 9.29 41.02 9.02
  Q 33.26 8.64 33.21 16.00
  A 0.70 0.63 29.3 0 0 33.34 16.39
  L 35.40 19.21
  Q 35.71 19.63 35.24 19.86
  Z
  M 20.7725 53.1699
  A 7.17 6.82 90.3 0 0 27.6299 46.0357
  A 7.17 6.82 90.3 0 0 20.8475 38.8301
  A 7.17 6.82 90.3 0 0 13.9901 45.9643
  A 7.17 6.82 90.3 0 0 20.7725 53.1699
  Z
  M 37.22 49.97
  C 29.49 56.55 28.41 36.19 37.20 41.74
  Q 37.67 42.03 38.14 41.74
  Q 40.20 40.43 42.72 41.09
  Q 43.27 41.23 43.27 41.81
  L 43.24 52.37
  Q 43.24 53.00 43.87 53.00
  L 45.50 53.00
  Q 46.00 53.00 46.00 52.50
  L 46.00 41.69
  A 0.60 0.60 0.0 0 1 46.55 41.09
  L 49.80 40.81
  A 0.83 0.83 0.0 0 0 49.80 39.15
  C 45.24 38.72 40.42 39.81 36.09 38.95
  C 23.84 36.52 26.45 59.12 38.73 51.94
  A 0.89 0.88 50.3 0 0 38.86 50.51
  L 38.24 49.97
  Q 37.73 49.53 37.22 49.97
  Z"
/>
<path fill="#ffffff" d="
  M 23.1498 31.3500
  A 11.34 8.28 89.9 0 1 14.8500 20.0245
  A 11.34 8.28 89.9 0 1 23.1102 8.6700
  A 11.34 8.28 89.9 0 1 31.4100 19.9955
  A 11.34 8.28 89.9 0 1 23.1498 31.3500
  Z
  M 23.1481 28.0600
  A 8.06 3.99 89.8 0 0 27.1100 19.9861
  A 8.06 3.99 89.8 0 0 23.0919 11.9400
  A 8.06 3.99 89.8 0 0 19.1300 20.0139
  A 8.06 3.99 89.8 0 0 23.1481 28.0600
  Z"
/>
<path fill="#ffffff" d="
  M 35.40 19.21
  L 33.34 16.39
  A 0.70 0.63 29.3 0 1 33.21 16.00
  Q 33.26 8.64 41.02 9.02
  C 46.43 9.29 50.00 15.85 44.96 19.05
  Q 44.46 19.37 44.97 19.67
  Q 48.11 21.51 47.95 24.83
  C 47.53 33.43 32.04 33.54 32.74 23.75
  Q 32.94 21.01 35.24 19.86
  Q 35.71 19.63 35.40 19.21
  Z
  M 43.22 14.93
  A 2.94 2.94 0.0 0 0 40.28 11.99
  A 2.94 2.94 0.0 0 0 37.34 14.93
  A 2.94 2.94 0.0 0 0 40.28 17.87
  A 2.94 2.94 0.0 0 0 43.22 14.93
  Z
  M 43.78 24.49
  A 3.51 3.51 0.0 0 0 40.27 20.98
  A 3.51 3.51 0.0 0 0 36.76 24.49
  A 3.51 3.51 0.0 0 0 40.27 28.00
  A 3.51 3.51 0.0 0 0 43.78 24.49
  Z"
/>
<ellipse fill="#302683" cx="0.00" cy="0.00" transform="translate(23.12,20.00) rotate(89.8)" rx="8.06" ry="3.99"/>
<circle fill="#302683" cx="40.28" cy="14.93" r="2.94"/>
<circle fill="#302683" cx="40.27" cy="24.49" r="3.51"/>
<path fill="#ffffff" d="
  M 20.7725 53.1699
  A 7.17 6.82 90.3 0 1 13.9901 45.9643
  A 7.17 6.82 90.3 0 1 20.8475 38.8301
  A 7.17 6.82 90.3 0 1 27.6299 46.0357
  A 7.17 6.82 90.3 0 1 20.7725 53.1699
  Z
  M 20.7724 51.0400
  A 5.05 3.91 90.2 0 0 24.7000 46.0036
  A 5.05 3.91 90.2 0 0 20.8076 40.9400
  A 5.05 3.91 90.2 0 0 16.8800 45.9764
  A 5.05 3.91 90.2 0 0 20.7724 51.0400
  Z"
/>
<path fill="#ffffff" d="
  M 37.20 41.74
  C 28.41 36.19 29.49 56.55 37.22 49.97
  Q 37.73 49.53 38.24 49.97
  L 38.86 50.51
  A 0.89 0.88 50.3 0 1 38.73 51.94
  C 26.45 59.12 23.84 36.52 36.09 38.95
  C 40.42 39.81 45.24 38.72 49.80 39.15
  A 0.83 0.83 0.0 0 1 49.80 40.81
  L 46.55 41.09
  A 0.60 0.60 0.0 0 0 46.00 41.69
  L 46.00 52.50
  Q 46.00 53.00 45.50 53.00
  L 43.87 53.00
  Q 43.24 53.00 43.24 52.37
  L 43.27 41.81
  Q 43.27 41.23 42.72 41.09
  Q 40.20 40.43 38.14 41.74
  Q 37.67 42.03 37.20 41.74
  Z"
/>
<ellipse fill="#302683" cx="0.00" cy="0.00" transform="translate(20.79,45.99) rotate(90.2)" rx="5.05" ry="3.91"/>
</svg>
