<svg viewBox="0 0 190 68" version="1.1" xmlns="http://www.w3.org/2000/svg" xmlns:xlink="http://www.w3.org/1999/xlink">
    <defs>
        <linearGradient x1="0.101048951%" y1="50.1055556%" x2="99.9926573%" y2="50.1055556%" id="linearGradient-jmxb21yq0r-1">
            <stop stop-color="#009982" offset="0%"></stop>
            <stop stop-color="#0069B4" offset="100%"></stop>
        </linearGradient>
        <linearGradient x1="0%" y1="49.9707692%" x2="99.8636364%" y2="49.9707692%" id="linearGradient-jmxb21yq0r-2">
            <stop stop-color="#D7007F" offset="0%"></stop>
            <stop stop-color="#71226B" offset="100%"></stop>
        </linearGradient>
        <linearGradient x1="0.000701452632%" y1="49.9138462%" x2="100.214737%" y2="49.9138462%" id="linearGradient-jmxb21yq0r-3">
            <stop stop-color="#F39200" offset="0%"></stop>
            <stop stop-color="#E50051" offset="100%"></stop>
        </linearGradient>
        <linearGradient x1="-0.103508772%" y1="49.9138462%" x2="100.107018%" y2="49.9138462%" id="linearGradient-jmxb21yq0r-4">
            <stop stop-color="#86BC25" offset="0%"></stop>
            <stop stop-color="#00A13A" offset="100%"></stop>
        </linearGradient>
    </defs>
    <g id="Page-1" stroke="none" stroke-width="1" fill="none" fill-rule="evenodd">
        <g id="logo_SSCe_horz_ENG" fill-rule="nonzero">
            <path d="M178.1,47.9 L181,47.9 L181,40 C181,39.5 181.1,39.1 181.2,38.6 C181.4,38.2 181.6,37.8 181.8,37.5 C182.1,37.2 182.4,36.9 182.8,36.8 C183.2,36.6 183.6,36.5 184.1,36.5 C185,36.5 185.6,36.7 186,37.2 C186.4,37.7 186.6,38.4 186.7,39.5 L186.7,47.9 L189.6,47.9 L189.6,38.7 C189.6,37.2 189.2,36 188.3,35.3 C187.5,34.5 186.3,34.2 184.8,34.2 C183.9,34.2 183.1,34.4 182.4,34.8 C181.7,35.2 181.1,35.8 180.6,36.5 L180.5,36.4 L180.5,34.4 L177.7,34.4 L177.7,47.9 L178.1,47.9 Z M175.9,42 C176,41 176,40 175.7,39.1 C175.5,38.2 175.1,37.3 174.5,36.6 C173.9,35.9 173.3,35.3 172.4,34.9 C171.6,34.5 170.6,34.2 169.6,34.2 C168.6,34.2 167.7,34.4 166.9,34.8 C166.1,35.2 165.4,35.7 164.9,36.3 C164.3,36.9 163.9,37.7 163.6,38.5 C163.3,39.4 163.1,40.3 163.1,41.2 C163.1,42.2 163.2,43.2 163.5,44 C163.8,44.8 164.2,45.6 164.8,46.2 C165.4,46.8 166,47.3 166.9,47.6 C167.7,47.9 168.6,48.1 169.7,48.1 C170.4,48.1 171.1,48 171.8,47.8 C172.5,47.6 173.1,47.3 173.6,46.9 C174.1,46.5 174.6,46 175,45.5 C175.4,44.9 175.6,44.3 175.8,43.6 L173,43.6 C172.7,44.3 172.4,44.9 171.8,45.3 C171.3,45.7 170.6,45.9 169.7,45.9 C169.1,45.9 168.5,45.8 168.1,45.6 C167.7,45.4 167.3,45.1 167,44.7 C166.7,44.3 166.5,43.9 166.3,43.4 C166.2,42.9 166.1,42.4 166.1,41.9 L175.9,41.9 L175.9,42 Z M166.1,40.1 C166.1,39.6 166.2,39.1 166.4,38.7 C166.6,38.3 166.8,37.9 167.1,37.6 C167.4,37.3 167.8,37 168.2,36.9 C168.6,36.7 169.1,36.6 169.6,36.6 C170.1,36.6 170.6,36.7 171,36.9 C171.4,37.1 171.7,37.4 172,37.7 C172.3,38 172.5,38.4 172.7,38.8 C172.9,39.2 173,39.7 173,40.1 L166.1,40.1 L166.1,40.1 Z M153.9,47.9 L157.2,47.9 L162,34.5 L159,34.5 L155.7,44.8 L155.6,44.8 L152.2,34.5 L149,34.5 L153.9,47.9 Z M139.5,45.6 C139,45.3 138.6,45 138.3,44.5 C138,44.1 137.8,43.5 137.6,43 C137.5,42.4 137.4,41.9 137.4,41.3 C137.4,40.7 137.5,40.2 137.6,39.6 C137.7,39 138,38.5 138.3,38.1 C138.6,37.7 139,37.3 139.5,37 C140,36.7 140.6,36.6 141.2,36.6 C141.9,36.6 142.4,36.7 142.9,37 C143.4,37.3 143.8,37.6 144.1,38.1 C144.4,38.6 144.6,39 144.8,39.6 C144.9,40.2 145,40.7 145,41.3 C145,41.9 144.9,42.5 144.8,43 C144.7,43.6 144.4,44.1 144.1,44.5 C143.8,44.9 143.4,45.3 142.9,45.6 C142.4,45.9 141.8,46 141.2,46 C140.5,46 140,45.8 139.5,45.6 M144,47.8 C144.8,47.4 145.5,47 146.1,46.3 C146.7,45.7 147.1,44.9 147.4,44.1 C147.7,43.2 147.9,42.3 147.9,41.3 C147.9,40.3 147.7,39.3 147.4,38.5 C147.1,37.7 146.7,36.9 146.1,36.3 C145.5,35.7 144.8,35.2 144,34.8 C143.2,34.4 142.2,34.3 141.1,34.3 C140,34.3 139.1,34.5 138.2,34.8 C137.4,35.2 136.7,35.6 136.1,36.3 C135.5,36.9 135.1,37.7 134.8,38.5 C134.5,39.4 134.3,40.3 134.3,41.3 C134.3,42.3 134.4,43.3 134.8,44.1 C135.1,45 135.5,45.7 136.1,46.3 C136.7,46.9 137.4,47.4 138.2,47.8 C139,48.2 140,48.3 141.1,48.3 C142.2,48.3 143.2,48.1 144,47.8 M120.2,47.9 L123.1,47.9 L123.1,40 C123.1,39.5 123.2,39.1 123.3,38.6 C123.5,38.2 123.7,37.8 123.9,37.5 C124.2,37.2 124.5,36.9 124.9,36.8 C125.3,36.6 125.7,36.5 126.2,36.5 C127.1,36.5 127.7,36.7 128.1,37.2 C128.5,37.7 128.7,38.4 128.8,39.5 L128.8,47.9 L131.7,47.9 L131.7,38.7 C131.7,37.2 131.3,36 130.4,35.3 C129.6,34.5 128.4,34.2 126.9,34.2 C126,34.2 125.2,34.4 124.5,34.8 C123.8,35.2 123.2,35.7 122.9,36.3 L122.8,36.3 L122.8,29.5 L119.9,29.5 L119.9,47.9 L120.2,47.9 Z M106.9,39.6 C107,39 107.2,38.5 107.5,38.1 C107.8,37.6 108.2,37.3 108.7,37 C109.2,36.7 109.8,36.6 110.4,36.6 C111.5,36.6 112.4,37 113.1,37.8 C113.8,38.6 114.1,39.8 114.1,41.3 C114.1,41.9 114,42.5 113.9,43 C113.8,43.6 113.5,44.1 113.2,44.5 C112.9,44.9 112.5,45.3 112,45.6 C111.5,45.9 111,46 110.3,46 C109.7,46 109.1,45.9 108.6,45.6 C108.1,45.3 107.8,45 107.5,44.6 C107.2,44.2 107,43.7 106.8,43.1 C106.7,42.5 106.6,42 106.6,41.4 C106.7,40.8 106.8,40.2 106.9,39.6 M117,29.5 L114.1,29.5 L114.1,36.3 L114,36.3 C113.8,35.9 113.5,35.6 113.2,35.4 C112.9,35.1 112.5,34.9 112.1,34.7 C111.7,34.5 111.3,34.4 110.9,34.3 C110.5,34.2 110,34.2 109.6,34.2 C108.9,34.2 108.2,34.3 107.5,34.6 C106.8,34.9 106.2,35.3 105.6,35.9 C105.1,36.5 104.6,37.2 104.3,38.1 C104,39 103.8,40 103.8,41.2 C103.8,42.2 103.9,43.1 104.2,44 C104.5,44.9 104.8,45.6 105.4,46.3 C105.9,46.9 106.6,47.4 107.3,47.8 C108.1,48.2 109,48.4 110.1,48.4 C110.9,48.4 111.7,48.2 112.5,47.9 C113.3,47.6 113.8,47 114.2,46.2 L114.3,46.2 L114.3,48 L117.1,48 L117.1,29.5 L117,29.5 Z M89.6,47.9 L92.5,47.9 L92.5,40 C92.5,39.5 92.6,39.1 92.7,38.6 C92.9,38.2 93.1,37.8 93.3,37.5 C93.6,37.2 93.9,36.9 94.3,36.8 C94.7,36.6 95.1,36.5 95.6,36.5 C96.5,36.5 97.1,36.7 97.5,37.2 C97.9,37.7 98.1,38.4 98.2,39.5 L98.2,47.9 L101.1,47.9 L101.1,38.7 C101.1,37.2 100.7,36 99.8,35.3 C99,34.5 97.8,34.2 96.3,34.2 C95.4,34.2 94.6,34.4 93.9,34.8 C93.2,35.2 92.6,35.8 92.1,36.5 L92,36.4 L92,34.4 L89.2,34.4 L89.2,47.9 L89.6,47.9 Z M83.5,47.9 L86.4,47.9 L86.4,34.6 L83.5,34.6 L83.5,47.9 Z M83.5,32.3 L86.4,32.3 L86.4,29.5 L83.5,29.5 L83.5,32.3 Z M67.5,47.9 L81,47.9 L81,45.1 L70.8,45.1 L70.8,39.7 L80.1,39.7 L80.1,37.1 L70.8,37.1 L70.8,32.3 L80.8,32.3 L80.8,29.5 L67.5,29.5 L67.5,47.9 Z" id="Shape" fill="#312783"></path>
            <path d="M126.9,7.6 C126.8,6.4 126.5,5.3 125.9,4.4 C125.4,3.5 124.7,2.7 123.9,2 C123.1,1.3 122.1,0.9 121,0.5 C119.9,0.2 118.7,0 117.5,0 C115.8,0 114.4,0.3 113.1,0.9 C111.8,1.5 110.7,2.4 109.8,3.4 C108.9,4.5 108.2,5.7 107.7,7.1 C107.2,8.5 107,10 107,11.6 C107,13.2 107.2,14.7 107.7,16.1 C108.2,17.5 108.9,18.7 109.8,19.8 C110.7,20.9 111.8,21.7 113.1,22.3 C114.4,22.9 115.9,23.2 117.5,23.2 C118.8,23.2 120.1,23 121.2,22.5 C122.3,22.1 123.3,21.5 124.1,20.7 C124.9,19.9 125.6,19 126.1,17.9 C126.6,16.8 126.9,15.6 127,14.3 L123.2,14.3 C123.1,15.1 122.9,15.9 122.7,16.6 C122.4,17.3 122.1,17.9 121.6,18.4 C121.1,18.9 120.6,19.3 119.9,19.6 C119.2,19.9 118.5,20.1 117.6,20.1 C116.4,20.1 115.4,19.9 114.5,19.4 C113.6,18.9 112.9,18.3 112.4,17.5 C111.9,16.7 111.5,15.8 111.2,14.8 C110.9,13.8 110.8,12.8 110.8,11.7 C110.8,10.6 110.9,9.6 111.2,8.6 C111.5,7.6 111.9,6.7 112.4,5.9 C112.9,5.1 113.6,4.5 114.5,4 C115.4,3.5 116.4,3.3 117.6,3.3 C118.4,3.3 119.1,3.4 119.7,3.6 C120.3,3.8 120.8,4.1 121.3,4.5 C121.8,4.9 122.1,5.4 122.4,5.9 C122.7,6.4 122.9,7 123.1,7.7 L126.9,7.7 L126.9,7.6 Z M86.7,15.3 C86.7,16.7 87,17.8 87.5,18.8 C88,19.8 88.7,20.6 89.5,21.3 C90.3,21.9 91.3,22.4 92.4,22.7 C93.5,23 94.7,23.2 96,23.2 C97.1,23.2 98.2,23.1 99.2,22.8 C100.3,22.5 101.2,22.1 102,21.6 C102.8,21 103.5,20.3 104,19.4 C104.5,18.5 104.8,17.5 104.8,16.2 C104.8,15.6 104.7,15 104.5,14.5 C104.3,13.9 104.1,13.4 103.7,12.9 C103.3,12.4 102.9,11.9 102.4,11.6 C101.9,11.2 101.2,10.9 100.5,10.7 C100.2,10.6 99.7,10.5 99.1,10.3 C98.4,10.1 97.7,9.9 97,9.8 C96.3,9.6 95.7,9.4 95.1,9.3 C94.5,9.1 94.2,9.1 94.1,9 C93.3,8.8 92.7,8.4 92.2,8 C91.7,7.6 91.5,6.9 91.5,6.2 C91.5,5.6 91.6,5.2 91.9,4.8 C92.2,4.4 92.5,4.1 92.9,3.9 C93.3,3.7 93.7,3.5 94.2,3.4 C94.7,3.3 95.1,3.3 95.6,3.3 C96.9,3.3 98,3.6 98.9,4.2 C99.8,4.8 100.3,5.8 100.4,7.2 L104.3,7.2 C104.3,6 104.1,5 103.6,4.1 C103.1,3.2 102.5,2.5 101.8,1.9 C101,1.3 100.1,0.9 99.1,0.6 C98.1,0.3 97,0.2 95.8,0.2 C94.8,0.2 93.8,0.3 92.9,0.6 C91.9,0.9 91.1,1.3 90.3,1.8 C89.5,2.3 88.9,3 88.5,3.8 C88,4.6 87.8,5.6 87.8,6.7 C87.8,7.3 87.9,7.8 88,8.4 C88.2,9 88.4,9.5 88.8,10 C89.2,10.5 89.7,10.9 90.3,11.3 C90.9,11.7 91.7,12 92.7,12.3 C94.2,12.7 95.5,13 96.6,13.3 C97.6,13.6 98.6,13.8 99.3,14.1 C99.8,14.3 100.2,14.6 100.6,15 C101,15.4 101.2,16 101.2,16.9 C101.2,17.3 101.1,17.7 101,18.1 C100.8,18.5 100.6,18.9 100.2,19.2 C99.8,19.5 99.3,19.8 98.7,20 C97.7,19.9 97,20 96.2,20 C95.4,20 94.7,19.9 94,19.7 C93.3,19.5 92.7,19.2 92.2,18.9 C91.7,18.5 91.3,18 91,17.4 C90.7,16.8 90.6,16.1 90.6,15.2 L86.7,15.2 L86.7,15.3 Z M66.6,15.3 C66.6,16.7 66.9,17.8 67.4,18.8 C67.9,19.8 68.6,20.6 69.4,21.3 C70.2,21.9 71.2,22.4 72.3,22.7 C73.4,23 74.6,23.2 75.9,23.2 C77,23.2 78.1,23.1 79.1,22.8 C80.2,22.5 81.1,22.1 81.9,21.6 C82.7,21 83.4,20.3 83.9,19.4 C84.4,18.5 84.7,17.5 84.7,16.2 C84.7,15.6 84.6,15 84.4,14.5 C84.2,13.9 84,13.4 83.6,12.9 C83.2,12.4 82.8,11.9 82.3,11.6 C81.8,11.2 81.1,10.9 80.4,10.7 C80.1,10.6 79.6,10.5 79,10.3 C78.3,10.1 77.6,9.9 76.9,9.8 C76.2,9.6 75.6,9.4 75,9.3 C74.4,9.1 74.1,9.1 74,9 C73.2,8.8 72.6,8.4 72.1,8 C71.6,7.6 71.4,6.9 71.4,6.2 C71.4,5.6 71.5,5.2 71.8,4.8 C72.1,4.4 72.4,4.1 72.8,3.9 C73.2,3.7 73.6,3.5 74.1,3.4 C74.6,3.3 75,3.3 75.5,3.3 C76.8,3.3 77.9,3.6 78.8,4.2 C79.7,4.8 80.2,5.8 80.3,7.2 L84,7.2 C84,6 83.8,5 83.3,4.1 C82.8,3.2 82.2,2.5 81.5,1.9 C80.7,1.3 79.8,0.9 78.8,0.6 C77.8,0.3 76.7,0.2 75.5,0.2 C74.5,0.2 73.5,0.3 72.6,0.6 C71.6,0.9 70.8,1.3 70,1.8 C69.2,2.3 68.6,3 68.2,3.8 C67.7,4.6 67.5,5.6 67.5,6.7 C67.5,7.3 67.6,7.8 67.7,8.4 C67.9,9 68.1,9.5 68.5,10 C68.9,10.5 69.4,10.9 70,11.3 C70.6,11.7 71.4,12 72.4,12.3 C73.9,12.7 75.2,13 76.3,13.3 C77.3,13.6 78.3,13.8 79,14.1 C79.5,14.3 79.9,14.6 80.3,15 C80.7,15.4 80.9,16 80.9,16.9 C80.9,17.3 80.8,17.7 80.7,18.1 C80.5,18.5 80.3,18.9 79.9,19.2 C79.5,19.5 79,19.8 78.4,20 C77.8,20.2 77.1,20.3 76.2,20.3 C75.4,20.3 74.7,20.2 74,20 C73.3,19.8 72.7,19.5 72.2,19.2 C71.7,18.8 71.3,18.3 71,17.7 C70.7,17.1 70.6,16.4 70.6,15.5 L66.6,15.5 L66.6,15.3 Z" id="Shape" fill="#312783"></path>
            <g id="Shape" transform="translate(30.500000, 34.100000)" fill="url(#linearGradient-jmxb21yq0r-1)">
                <path d="M11.5,10.4 L15.5,10.4 L15.5,11.3 L11.5,11.3 L11.5,10.4 Z M10.4,12.5 L16.8,12.5 L16.8,9.2 L10.4,9.2 L10.4,12.5 Z M1.2,7.1 L14,1.3 L27.5,5.6 L27.5,15.7 L21,19.9 L10.3,17.5 L10.3,23.3 L12.1,24.2 L24.2,24.2 L24.2,29.1 L12,31.2 L3,26.8 L1.2,27.8 L1.2,7.1 Z M0,6.3 L0,29.8 L3,28.1 L11.8,32.4 L25.3,30 L25.3,23 L12.3,23 L11.5,22.6 L11.5,19 L21.3,21.2 L28.6,16.3 L28.6,4.7 L13.9,0 L0,6.3 Z"></path>
            </g>
            <g id="Shape" transform="translate(0.000000, 34.100000)" fill="url(#linearGradient-jmxb21yq0r-2)">
                <path d="M1.2,5.5 L14.8,1.3 L27.5,7.3 L27.5,27.9 L25.7,26.9 L16.5,31.4 L1.2,29.1 L1.2,22.7 L18.2,22.7 L18.2,9.2 L1.2,9.2 L1.2,5.5 Z M0,4.7 L0,10.4 L17,10.4 L17,21.5 L0,21.5 L0,30.1 L16.6,32.5 L25.6,28.2 L25.6,28.2 L28.6,29.9 L28.6,6.5 L14.9,0 L0,4.7 Z"></path>
            </g>
            <g id="Shape" transform="translate(0.000000, 0.100000)" fill="url(#linearGradient-jmxb21yq0r-3)">
                <path d="M3.1,1.2 L19.8,1.2 L27.4,5.7 L27.4,12.3 L21.3,17.8 L11.4,17.8 L11.4,24.3 L27.4,20.3 L27.4,28.2 L25.6,27.2 L12.7,31.3 L1.2,26.3 L1.2,16.8 L7.6,12.4 L17.8,14.8 L17.8,8.3 L3.1,8.3 L3.1,1.2 Z M2,0 L2,9.5 L16.6,9.5 L16.6,13.2 L7.3,11 L0,16.1 L0,27 L12.6,32.5 L25.4,28.4 L28.5,30.1 L28.5,18.6 L12.5,22.6 L12.5,18.9 L21.7,18.9 L28.5,12.8 L28.5,5 L20.1,0 L2,0 L2,0 Z"></path>
            </g>
            <g id="Shape" transform="translate(30.600000, 0.100000)" fill="url(#linearGradient-jmxb21yq0r-4)">
                <path d="M1.1,12.2 L1.1,5.6 L8.7,1.1 L25.4,1.1 L25.4,8.2 L10.8,8.2 L10.8,14.6 L21,12.2 L27.4,16.6 L27.4,26.1 L15.9,31.1 L3,27 L1.2,28 L1.2,20.1 L17.2,24.1 L17.2,17.6 L7.3,17.6 L1.1,12.2 Z M8.4,0 L-3.55271368e-15,5 L-3.55271368e-15,12.8 L6.8,18.9 L16,18.9 L16,22.7 L-3.55271368e-15,18.7 L-3.55271368e-15,30.1 L3.1,28.4 L15.9,32.5 L28.5,27 L28.5,16.1 L21.2,11 L11.9,13.2 L11.9,9.5 L26.5,9.5 L26.5,0 L8.4,0 Z"></path>
            </g>
            <path d="M182.8,64.8 C182.4,65.1 181.8,65.3 181.1,65.3 C180.6,65.3 180.2,65.2 179.9,65.1 C179.5,64.9 179.3,64.7 179,64.5 C178.8,64.2 178.6,63.9 178.5,63.5 C178.4,63.1 178.3,62.7 178.3,62.2 C178.3,61.7 178.4,61.3 178.5,61 C178.6,60.7 178.8,60.3 179.1,60 C179.3,59.7 179.6,59.5 180,59.4 C180.3,59.2 180.7,59.2 181.1,59.2 C181.6,59.2 182.1,59.3 182.4,59.5 C182.7,59.7 183,60 183.2,60.3 C183.4,60.6 183.6,61 183.6,61.4 C183.7,61.8 183.7,62.2 183.7,62.5 L179.2,62.5 C179.2,62.8 179.2,63 179.3,63.2 C179.4,63.4 179.5,63.6 179.6,63.8 C179.8,64 179.9,64.1 180.2,64.2 C180.4,64.3 180.7,64.4 181,64.4 C181.4,64.4 181.8,64.3 182,64.1 C182.3,63.9 182.4,63.6 182.5,63.2 L183.5,63.2 C183.6,64 183.3,64.5 182.8,64.8 M182.6,61 C182.5,60.8 182.4,60.6 182.2,60.5 C182.1,60.3 181.9,60.2 181.7,60.1 C181.5,60 181.3,60 181,60 C180.7,60 180.5,60 180.3,60.1 C180.1,60.2 179.9,60.3 179.8,60.5 C179.7,60.7 179.5,60.8 179.5,61 C179.4,61.2 179.4,61.4 179.4,61.7 L182.8,61.7 C182.7,61.4 182.7,61.2 182.6,61 M175.8,59.2 L175.8,60.5 L175.8,60.5 C176,60 176.3,59.7 176.7,59.4 C177,59.2 177.5,59.1 178,59.1 L178,60.1 C177.6,60.1 177.3,60.2 177,60.3 C176.7,60.4 176.5,60.6 176.3,60.8 C176.1,61 176,61.3 175.9,61.6 C175.8,61.9 175.8,62.2 175.8,62.6 L175.8,65.2 L174.8,65.2 L174.8,59.2 L175.8,59.2 Z M173.7,59.2 L173.7,60.1 L172.5,60.1 L172.5,63.8 C172.5,63.9 172.5,64 172.5,64.1 C172.5,64.2 172.6,64.2 172.6,64.3 C172.7,64.3 172.7,64.4 172.8,64.4 C172.9,64.4 173,64.4 173.2,64.4 L173.6,64.4 L173.6,65.3 L172.9,65.3 C172.6,65.3 172.4,65.3 172.3,65.2 C172.1,65.2 172,65.1 171.9,65 C171.8,64.9 171.7,64.8 171.7,64.6 C171.6,64.4 171.6,64.2 171.6,63.9 L171.6,60.1 L170.6,60.1 L170.6,59.2 L171.6,59.2 L171.6,57.4 L172.6,57.4 L172.6,59.2 L173.7,59.2 L173.7,59.2 Z M165.6,59.2 L165.6,60.1 L165.6,60.1 C166,59.4 166.7,59 167.5,59 C167.9,59 168.2,59.1 168.5,59.2 C168.8,59.3 169,59.5 169.1,59.6 C169.3,59.8 169.4,60 169.4,60.3 C169.5,60.6 169.5,60.9 169.5,61.2 L169.5,65.1 L168.5,65.1 L168.5,61.1 C168.5,60.7 168.4,60.4 168.2,60.2 C168,60 167.7,59.9 167.3,59.9 C167,59.9 166.7,59.9 166.5,60 C166.3,60.1 166.1,60.2 166,60.4 C165.9,60.6 165.7,60.8 165.7,61 C165.6,61.2 165.6,61.5 165.6,61.7 L165.6,65.1 L164.6,65.1 L164.6,59.1 L165.6,59.1 L165.6,59.2 Z M162.5,64.8 C162.1,65.1 161.5,65.3 160.8,65.3 C160.3,65.3 159.9,65.2 159.6,65.1 C159.2,64.9 159,64.7 158.7,64.5 C158.5,64.2 158.3,63.9 158.2,63.5 C158.1,63.1 158,62.7 158,62.2 C158,61.7 158.1,61.3 158.2,61 C158.3,60.6 158.5,60.3 158.8,60 C159,59.7 159.3,59.5 159.7,59.4 C160,59.2 160.4,59.2 160.8,59.2 C161.3,59.2 161.8,59.3 162.1,59.5 C162.4,59.7 162.7,60 162.9,60.3 C163.1,60.6 163.3,61 163.3,61.4 C163.4,61.8 163.4,62.2 163.4,62.5 L159,62.5 C159,62.8 159,63 159.1,63.2 C159.2,63.4 159.3,63.6 159.4,63.8 C159.6,64 159.8,64.1 160,64.2 C160.2,64.3 160.5,64.4 160.8,64.4 C161.2,64.4 161.6,64.3 161.8,64.1 C162.1,63.9 162.2,63.6 162.3,63.2 L163.3,63.2 C163.3,64 163,64.5 162.5,64.8 M162.3,61 C162.2,60.8 162.1,60.6 161.9,60.5 C161.8,60.3 161.6,60.2 161.4,60.1 C161.2,60 161,60 160.7,60 C160.4,60 160.2,60 160,60.1 C159.8,60.2 159.6,60.3 159.5,60.5 C159.4,60.7 159.2,60.8 159.2,61 C159.1,61.2 159.1,61.4 159.1,61.7 L162.5,61.7 C162.4,61.4 162.4,61.2 162.3,61 M155,58.1 C154.6,57.8 154.1,57.7 153.5,57.7 C153,57.7 152.6,57.8 152.2,58 C151.8,58.2 151.6,58.4 151.3,58.7 C151.1,59 150.9,59.4 150.8,59.8 C150.7,60.2 150.6,60.6 150.6,61 C150.6,61.5 150.7,61.9 150.8,62.3 C150.9,62.7 151.1,63.1 151.3,63.4 C151.5,63.7 151.8,64 152.2,64.1 C152.6,64.3 153,64.4 153.5,64.4 C153.9,64.4 154.2,64.3 154.5,64.2 C154.8,64.1 155,63.9 155.2,63.7 C155.4,63.5 155.6,63.2 155.7,62.9 C155.8,62.6 155.9,62.3 155.9,62 L157,62 C156.9,63 156.5,63.8 155.9,64.4 C155.3,65 154.5,65.3 153.4,65.3 C152.8,65.3 152.2,65.2 151.7,65 C151.2,64.8 150.8,64.5 150.5,64.1 C150.2,63.7 149.9,63.3 149.8,62.7 C149.6,62.2 149.6,61.6 149.6,61 C149.6,60.4 149.7,59.8 149.9,59.3 C150.1,58.8 150.3,58.3 150.6,57.9 C150.9,57.5 151.3,57.2 151.8,57 C152.3,56.8 152.8,56.7 153.5,56.7 C153.9,56.7 154.3,56.8 154.7,56.9 C155.1,57 155.4,57.2 155.7,57.4 C156,57.6 156.2,57.9 156.4,58.2 C156.6,58.5 156.7,58.9 156.8,59.4 L155.7,59.4 C155.7,58.9 155.5,58.4 155,58.1 M141.5,63.9 C141.6,64 141.7,64.2 141.9,64.3 C142.1,64.4 142.2,64.5 142.4,64.5 C142.6,64.5 142.8,64.6 143,64.6 C143.2,64.6 143.3,64.6 143.5,64.6 C143.7,64.6 143.8,64.5 144,64.5 C144.1,64.4 144.3,64.3 144.4,64.2 C144.5,64.1 144.5,63.9 144.5,63.7 C144.5,63.4 144.4,63.3 144.2,63.1 C144,63 143.8,62.9 143.5,62.8 C143.2,62.7 142.9,62.6 142.6,62.6 C142.3,62.5 141.9,62.4 141.7,62.3 C141.5,62.2 141.2,62 141,61.8 C140.8,61.6 140.7,61.3 140.7,60.9 C140.7,60.6 140.8,60.3 140.9,60.1 C141,59.9 141.2,59.7 141.4,59.6 C141.6,59.5 141.8,59.4 142.1,59.3 C142.4,59.2 142.6,59.2 142.9,59.2 C143.2,59.2 143.5,59.2 143.8,59.3 C144.1,59.4 144.3,59.5 144.6,59.6 C144.8,59.7 145,59.9 145.1,60.2 C145.2,60.4 145.3,60.7 145.3,61.1 L144.3,61.1 C144.3,60.9 144.2,60.7 144.2,60.6 C144.1,60.5 144,60.4 143.9,60.3 C143.8,60.2 143.6,60.2 143.5,60.1 C143.3,60.1 143.2,60 143,60 C142.9,60 142.7,60 142.6,60 C142.5,60 142.3,60.1 142.2,60.1 C142.1,60.2 142,60.2 141.9,60.3 C141.8,60.4 141.8,60.5 141.8,60.7 C141.8,60.9 141.9,61 142,61.1 C142.1,61.2 142.3,61.3 142.5,61.4 C142.7,61.5 142.9,61.5 143.1,61.6 C143.3,61.7 143.6,61.7 143.8,61.8 C144,61.9 144.3,61.9 144.5,62 C144.7,62.1 144.9,62.2 145.1,62.3 C145.3,62.4 145.4,62.6 145.5,62.8 C145.6,63 145.7,63.2 145.7,63.5 C145.7,63.9 145.6,64.2 145.5,64.4 C145.3,64.6 145.2,64.8 144.9,65 C144.7,65.1 144.4,65.2 144.1,65.3 C143.8,65.4 143.5,65.4 143.2,65.4 C142.9,65.4 142.6,65.4 142.3,65.3 C142,65.2 141.7,65.1 141.5,65 C141.3,64.8 141.1,64.6 140.9,64.4 C140.8,64.1 140.7,63.8 140.7,63.5 L141.7,63.5 C141.3,63.5 141.4,63.7 141.5,63.9 M139.5,59.2 L139.5,60.1 L138.3,60.1 L138.3,63.8 C138.3,63.9 138.3,64 138.3,64.1 C138.3,64.2 138.4,64.2 138.4,64.3 C138.5,64.3 138.5,64.4 138.6,64.4 C138.7,64.4 138.8,64.4 139,64.4 L139.4,64.4 L139.4,65.3 L138.7,65.3 C138.4,65.3 138.2,65.3 138,65.2 C137.8,65.2 137.7,65.1 137.6,65 C137.5,64.9 137.4,64.8 137.4,64.6 C137.3,64.4 137.3,64.2 137.3,63.9 L137.3,60.1 L136.3,60.1 L136.3,59.2 L137.3,59.2 L137.3,57.4 L138.3,57.4 L138.3,59.2 L139.5,59.2 L139.5,59.2 Z M133.9,59.2 L133.9,60.5 L133.9,60.5 C134.1,60 134.4,59.7 134.8,59.4 C135.1,59.2 135.6,59.1 136.1,59.1 L136.1,60.1 C135.7,60.1 135.4,60.2 135.1,60.3 C134.8,60.4 134.6,60.6 134.4,60.8 C134.2,61 134.1,61.3 134,61.6 C133.9,61.9 133.9,62.2 133.9,62.6 L133.9,65.2 L132.9,65.2 L132.9,59.2 L133.9,59.2 Z M126.2,61 C126.3,60.6 126.5,60.3 126.8,60 C127,59.7 127.3,59.5 127.7,59.3 C128.1,59.1 128.5,59.1 128.9,59.1 C129.4,59.1 129.8,59.2 130.1,59.3 C130.4,59.4 130.8,59.7 131,60 C131.2,60.3 131.4,60.6 131.6,61 C131.7,61.4 131.8,61.8 131.8,62.2 C131.8,62.6 131.7,63 131.6,63.4 C131.5,63.8 131.3,64.1 131,64.4 C130.8,64.7 130.5,64.9 130.1,65.1 C129.7,65.3 129.3,65.3 128.9,65.3 C128.4,65.3 128,65.2 127.7,65.1 C127.3,64.9 127,64.7 126.8,64.4 C126.6,64.1 126.4,63.8 126.2,63.4 C126,63 126,62.6 126,62.2 C126,61.8 126,61.4 126.2,61 M127.2,63.2 C127.3,63.5 127.4,63.7 127.6,63.9 C127.8,64.1 128,64.2 128.2,64.3 C128.4,64.4 128.7,64.4 128.9,64.4 C129.2,64.4 129.4,64.4 129.6,64.3 C129.8,64.2 130,64.1 130.2,63.9 C130.4,63.7 130.5,63.5 130.6,63.2 C130.7,62.9 130.7,62.6 130.7,62.2 C130.7,61.8 130.7,61.5 130.6,61.2 C130.5,60.9 130.4,60.7 130.2,60.5 C130,60.3 129.8,60.2 129.6,60.1 C129.4,60 129.1,60 128.9,60 C128.6,60 128.4,60 128.2,60.1 C128,60.2 127.8,60.3 127.6,60.5 C127.4,60.7 127.3,60.9 127.2,61.2 C127.1,61.5 127.1,61.8 127.1,62.2 C127,62.6 127.1,62.9 127.2,63.2 M123.9,61.3 C123.8,61 123.7,60.8 123.6,60.6 C123.5,60.4 123.3,60.2 123,60.1 C122.7,60 122.5,59.9 122.2,59.9 C121.9,59.9 121.6,60 121.4,60.1 C121.2,60.2 121,60.4 120.8,60.6 C120.7,60.8 120.5,61.1 120.5,61.3 C120.4,61.6 120.4,61.8 120.4,62.1 C120.4,62.4 120.4,62.7 120.5,62.9 C120.6,63.2 120.7,63.4 120.8,63.6 C120.9,63.8 121.1,64 121.4,64.1 C121.6,64.2 121.9,64.3 122.3,64.3 C122.6,64.3 122.9,64.2 123.1,64.1 C123.3,64 123.5,63.8 123.6,63.6 C123.7,63.4 123.8,63.1 123.9,62.9 C124,62.6 124,62.3 124,62 C124,61.9 124,61.6 123.9,61.3 M120.4,59.2 L120.4,60 L120.4,60 C120.6,59.7 120.8,59.4 121.2,59.3 C121.5,59.2 121.9,59.1 122.3,59.1 C122.8,59.1 123.2,59.2 123.5,59.4 C123.8,59.6 124.1,59.8 124.4,60.1 C124.6,60.4 124.8,60.7 124.9,61.1 C125,61.5 125.1,61.9 125.1,62.3 C125.1,62.7 125,63.1 124.9,63.5 C124.8,63.9 124.6,64.2 124.4,64.5 C124.2,64.8 123.9,65 123.5,65.2 C123.2,65.4 122.8,65.4 122.3,65.4 C122.2,65.4 122,65.4 121.8,65.4 C121.6,65.4 121.4,65.3 121.3,65.3 C121.1,65.2 121,65.1 120.8,65 C120.6,64.9 120.5,64.7 120.4,64.6 L120.4,64.6 L120.4,67.7 L119.4,67.7 L119.4,59.5 L120.4,59.5 L120.4,59.2 Z M116.1,58.1 C115.7,57.8 115.3,57.7 114.7,57.7 C114.5,57.7 114.2,57.7 114,57.8 C113.8,57.8 113.6,57.9 113.4,58 C113.2,58.1 113.1,58.3 113,58.4 C112.9,58.6 112.8,58.8 112.8,59.1 C112.8,59.4 112.9,59.6 113,59.7 C113.1,59.9 113.3,60 113.6,60.1 C113.8,60.2 114.1,60.3 114.4,60.3 C114.7,60.4 115,60.4 115.4,60.5 C115.7,60.6 116,60.7 116.4,60.8 C116.8,60.9 117,61 117.2,61.2 C117.4,61.4 117.6,61.6 117.8,61.9 C118,62.2 118,62.5 118,62.9 C118,63.3 117.9,63.7 117.7,64 C117.5,64.3 117.3,64.6 116.9,64.8 C116.6,65 116.2,65.1 115.9,65.2 C115.5,65.3 115.1,65.3 114.8,65.3 C114.3,65.3 113.9,65.2 113.5,65.1 C113.1,65 112.7,64.8 112.4,64.6 C112.1,64.4 111.8,64.1 111.7,63.7 C111.5,63.3 111.4,62.9 111.4,62.4 L112.4,62.4 C112.4,62.7 112.5,63 112.6,63.3 C112.7,63.5 112.9,63.8 113.1,63.9 C113.3,64.1 113.6,64.2 113.9,64.3 C114.2,64.4 114.5,64.4 114.8,64.4 C115,64.4 115.3,64.4 115.5,64.3 C115.7,64.3 116,64.2 116.2,64.1 C116.4,64 116.6,63.8 116.7,63.6 C116.8,63.4 116.9,63.2 116.9,62.9 C116.9,62.6 116.8,62.4 116.7,62.2 C116.6,62 116.4,61.9 116.1,61.8 C115.9,61.7 115.6,61.6 115.3,61.5 C115,61.4 114.7,61.4 114.3,61.3 C114,61.2 113.7,61.1 113.3,61 C113,60.9 112.7,60.8 112.5,60.6 C112.3,60.4 112.1,60.2 111.9,60 C111.7,59.8 111.7,59.4 111.7,59.1 C111.7,58.7 111.8,58.3 112,58 C112.2,57.7 112.4,57.4 112.7,57.3 C113,57.1 113.3,57 113.7,56.9 C114.1,56.8 114.4,56.8 114.8,56.8 C115.2,56.8 115.6,56.8 116,56.9 C116.4,57 116.7,57.2 116.9,57.4 C117.2,57.6 117.4,57.9 117.5,58.2 C117.7,58.5 117.7,58.9 117.8,59.4 L116.8,59.4 C116.6,58.8 116.4,58.4 116.1,58.1 M107.3,59.2 L107.3,60.1 L106.1,60.1 L106.1,63.8 C106.1,63.9 106.1,64 106.1,64.1 C106.1,64.2 106.2,64.2 106.2,64.3 C106.3,64.3 106.3,64.4 106.4,64.4 C106.5,64.4 106.6,64.4 106.8,64.4 L107.2,64.4 L107.2,65.3 L106.5,65.3 C106.2,65.3 106,65.3 105.8,65.2 C105.6,65.2 105.5,65.1 105.4,65 C105.3,64.9 105.2,64.8 105.2,64.6 C105.1,64.4 105.1,64.2 105.1,63.9 L105.1,60.1 L104.1,60.1 L104.1,59.2 L105.1,59.2 L105.1,57.4 L106.1,57.4 L106.1,59.2 L107.3,59.2 L107.3,59.2 Z M99.1,59.2 L99.1,60.1 L99.1,60.1 C99.5,59.4 100.2,59 101,59 C101.4,59 101.7,59.1 102,59.2 C102.3,59.3 102.5,59.5 102.6,59.6 C102.8,59.8 102.9,60 102.9,60.3 C103,60.6 103,60.9 103,61.2 L103,65.1 L102,65.1 L102,61.1 C102,60.7 101.9,60.4 101.7,60.2 C101.5,60 101.2,59.9 100.8,59.9 C100.5,59.9 100.2,59.9 100,60 C99.8,60.1 99.6,60.2 99.5,60.4 C99.4,60.6 99.2,60.8 99.2,61 C99.1,61.2 99.1,61.5 99.1,61.7 L99.1,65.1 L98.1,65.1 L98.1,59.1 L99.1,59.1 L99.1,59.2 Z M96.1,64.8 C95.7,65.1 95.1,65.3 94.4,65.3 C93.9,65.3 93.5,65.2 93.2,65.1 C92.9,64.9 92.6,64.7 92.3,64.5 C92.1,64.2 91.9,63.9 91.8,63.5 C91.7,63.1 91.6,62.7 91.6,62.2 C91.6,61.7 91.7,61.3 91.8,61 C91.9,60.7 92.1,60.3 92.4,60 C92.6,59.7 92.9,59.5 93.3,59.4 C93.6,59.2 94,59.2 94.4,59.2 C94.9,59.2 95.4,59.3 95.7,59.5 C96,59.7 96.3,60 96.5,60.3 C96.7,60.6 96.9,61 96.9,61.4 C97,61.8 97,62.2 97,62.5 L92.5,62.5 C92.5,62.8 92.5,63 92.6,63.2 C92.7,63.4 92.8,63.6 92.9,63.8 C93.1,64 93.2,64.1 93.5,64.2 C93.7,64.3 94,64.4 94.3,64.4 C94.7,64.4 95.1,64.3 95.3,64.1 C95.6,63.9 95.7,63.6 95.8,63.2 L96.8,63.2 C96.9,64 96.6,64.5 96.1,64.8 M95.9,61 C95.8,60.8 95.7,60.6 95.5,60.5 C95.3,60.3 95.2,60.2 95,60.1 C94.8,60 94.6,60 94.3,60 C94,60 93.8,60 93.6,60.1 C93.4,60.2 93.2,60.3 93.1,60.5 C93,60.7 92.8,60.8 92.8,61 C92.7,61.2 92.7,61.4 92.7,61.7 L96,61.7 C96,61.4 96,61.2 95.9,61 M89.3,65.2 L89.3,64.4 L89.3,64.4 C89.1,64.7 88.9,65 88.5,65.1 C88.2,65.2 87.8,65.3 87.4,65.3 C86.9,65.3 86.5,65.2 86.2,65 C85.9,64.8 85.6,64.6 85.3,64.3 C85.1,64 84.9,63.7 84.8,63.3 C84.7,62.9 84.6,62.5 84.6,62.1 C84.6,61.7 84.7,61.3 84.8,60.9 C84.9,60.5 85.1,60.2 85.3,59.9 C85.5,59.6 85.8,59.4 86.2,59.2 C86.5,59 86.9,59 87.4,59 C87.6,59 87.7,59 87.9,59 C88.1,59 88.3,59.1 88.4,59.2 C88.6,59.3 88.7,59.4 88.9,59.5 C89.1,59.6 89.2,59.8 89.3,59.9 L89.3,59.9 L89.3,57 L90.3,57 L90.3,65.2 L89.3,65.2 Z M85.8,63.1 C85.9,63.4 86,63.6 86.1,63.8 C86.3,64 86.4,64.2 86.7,64.3 C86.9,64.4 87.2,64.5 87.5,64.5 C87.8,64.5 88.1,64.4 88.3,64.3 C88.5,64.2 88.7,64 88.9,63.8 C89,63.6 89.2,63.3 89.2,63.1 C89.3,62.8 89.3,62.6 89.3,62.3 C89.3,62 89.3,61.7 89.2,61.5 C89.1,61.2 89,61 88.9,60.8 C88.8,60.6 88.6,60.4 88.3,60.3 C88.1,60 87.8,60 87.5,60 C87.2,60 86.9,60.1 86.7,60.2 C86.5,60.3 86.3,60.5 86.1,60.7 C85.9,60.9 85.9,61.2 85.8,61.4 C85.7,61.7 85.7,62 85.7,62.3 C85.7,62.5 85.7,62.8 85.8,63.1 M82.5,65.2 L82.5,64.3 L82.5,64.3 C82.3,64.7 82,64.9 81.7,65.1 C81.4,65.3 81,65.4 80.6,65.4 C80.2,65.4 79.9,65.3 79.6,65.2 C79.3,65.1 79.1,64.9 79,64.8 C78.8,64.6 78.7,64.4 78.7,64.1 C78.6,63.8 78.6,63.5 78.6,63.2 L78.6,59.3 L79.6,59.3 L79.6,63.3 C79.6,63.7 79.7,64 79.9,64.2 C80.1,64.4 80.4,64.5 80.8,64.5 C81.1,64.5 81.4,64.5 81.6,64.4 C81.8,64.3 82,64.2 82.1,64 C82.2,63.8 82.4,63.6 82.4,63.4 C82.5,63.2 82.5,62.9 82.5,62.7 L82.5,59.3 L83.5,59.3 L83.5,65.3 L82.5,65.3 L82.5,65.2 Z M77.3,59.2 L77.3,60.1 L76.1,60.1 L76.1,63.8 C76.1,63.9 76.1,64 76.1,64.1 C76.1,64.2 76.2,64.2 76.2,64.3 C76.3,64.3 76.3,64.4 76.4,64.4 C76.5,64.4 76.6,64.4 76.8,64.4 L77.2,64.4 L77.2,65.3 L76.5,65.3 C76.2,65.3 76,65.3 75.8,65.2 C75.6,65.2 75.5,65.1 75.4,65 C75.3,64.9 75.2,64.8 75.2,64.6 C75.1,64.4 75.1,64.2 75.1,63.9 L75.1,60.1 L74.1,60.1 L74.1,59.2 L75.1,59.2 L75.1,57.4 L76.1,57.4 L76.1,59.2 L77.3,59.2 L77.3,59.2 Z M71.4,58.1 C71,57.8 70.6,57.7 70,57.7 C69.8,57.7 69.5,57.7 69.3,57.8 C69.1,57.8 68.9,57.9 68.7,58 C68.5,58.1 68.4,58.3 68.3,58.4 C68.2,58.6 68.1,58.8 68.1,59.1 C68.1,59.4 68.2,59.6 68.3,59.7 C68.4,59.9 68.6,60 68.9,60.1 C69.1,60.2 69.4,60.3 69.7,60.3 C70,60.4 70.3,60.4 70.7,60.5 C71,60.6 71.3,60.7 71.7,60.8 C72,60.9 72.3,61 72.5,61.2 C72.7,61.4 72.9,61.6 73.1,61.9 C73.2,62.2 73.3,62.5 73.3,62.9 C73.3,63.3 73.2,63.7 73,64 C72.8,64.3 72.6,64.6 72.2,64.8 C71.9,65 71.5,65.1 71.2,65.2 C70.8,65.3 70.4,65.3 70.1,65.3 C69.6,65.3 69.2,65.2 68.8,65.1 C68.4,65 68,64.8 67.7,64.6 C67.4,64.4 67.1,64.1 67,63.7 C66.8,63.3 66.7,62.9 66.7,62.4 L67.7,62.4 C67.7,62.7 67.8,63 67.9,63.3 C68,63.5 68.2,63.8 68.4,63.9 C68.6,64.1 68.9,64.2 69.2,64.3 C69.5,64.4 69.8,64.4 70.1,64.4 C70.3,64.4 70.6,64.4 70.8,64.3 C71,64.3 71.3,64.2 71.5,64.1 C71.7,64 71.9,63.8 72,63.6 C72.1,63.4 72.2,63.2 72.2,62.9 C72.2,62.6 72.1,62.4 72,62.2 C71.9,62 71.7,61.9 71.4,61.8 C71.2,61.7 70.9,61.6 70.6,61.5 C70.3,61.4 70,61.4 69.6,61.3 C69.3,61.2 69,61.1 68.6,61 C68.3,60.9 68,60.8 67.8,60.6 C67.6,60.4 67.4,60.2 67.2,60 C67.1,59.8 67,59.4 67,59.1 C67,58.7 67.1,58.3 67.3,58 C67.5,57.7 67.7,57.4 68,57.3 C68.3,57.2 68.6,57 69,56.9 C69.4,56.8 69.7,56.8 70.1,56.8 C70.5,56.8 70.9,56.8 71.3,56.9 C71.7,57 72,57.2 72.2,57.4 C72.5,57.6 72.7,57.9 72.8,58.2 C72.9,58.5 73,58.9 73.1,59.4 L72.1,59.4 C72,58.8 71.8,58.4 71.4,58.1" id="Shape" fill="#312783"></path>
        </g>
    </g>
</svg>